<svg width="1440" height="816" viewBox="0 0 1440 816" fill="none" xmlns="http://www.w3.org/2000/svg">
<mask id="mask0" mask-type="alpha" maskUnits="userSpaceOnUse" x="-1275" y="-3174" width="3990" height="3990">
<circle cx="720" cy="-1179" r="1995" fill="#C4C4C4"/>
</mask>
<g mask="url(#mask0)">
<rect x="1" width="1439" height="816" fill="#F08300"/>
<g opacity="0.1">
<path d="M237.91 933.166L165.252 540.115L173.714 538.072L246.664 931.124C243.725 933.999 241.706 934.004 237.91 933.166Z" fill="#BDBDBD" stroke="#333333" stroke-width="6.49199" stroke-linecap="round" stroke-linejoin="round"/>
<path d="M459.676 530.486L494.692 696.518C476.413 704.536 464.893 707.658 457.582 696.518C454.637 692.032 452.376 685.233 450.63 675.509L422.618 530.486C435.969 537.82 443.955 538.661 459.676 530.486Z" fill="#D24646"/>
<path d="M450.63 675.509L422.618 530.486C435.969 537.82 443.955 538.661 459.676 530.486L494.692 696.518C476.413 704.536 464.893 707.658 457.582 696.518M450.63 675.509C452.376 685.233 454.637 692.032 457.582 696.518M450.63 675.509C460.623 677.184 464.839 679.038 469.014 684.555C460.509 686.683 456.72 688.492 457.582 696.518" stroke="#333333" stroke-width="6.49199" stroke-linecap="round" stroke-linejoin="round"/>
<path d="M438.073 596.396C454.094 602.965 461.944 603.665 472.697 596.396L495.419 695.94C473.821 707.654 463.467 709.335 453.221 689.448L438.073 596.396Z" fill="#E3E3E3" stroke="#333333" stroke-width="6.49199" stroke-linecap="round" stroke-linejoin="round"/>
<path d="M305.607 538.072C225.946 578.34 175.173 540.99 175.173 540.99L205.812 709.941C205.812 709.941 249.29 724.823 340.623 689.807C431.955 654.791 469.305 684.555 469.305 684.555L431.955 516.188C431.955 516.188 385.268 497.804 305.607 538.072Z" fill="#EB5757" stroke="#333333" stroke-width="6.49199" stroke-linecap="round" stroke-linejoin="round"/>
<path d="M310.398 615.872C229.248 654.824 190.296 627.774 190.296 627.774L205.444 708.924C205.444 708.924 245.478 727.318 335.284 691.612C425.089 655.906 468.369 682.956 468.369 682.956L448.893 593.15C448.893 593.15 391.547 576.92 310.398 615.872Z" fill="white" stroke="#333333" stroke-width="6.49199" stroke-linecap="round" stroke-linejoin="round"/>
<circle cx="168.17" cy="532.236" r="4.92434" fill="#C4C4C4" stroke="#333333" stroke-width="6.49199" stroke-linecap="round" stroke-linejoin="round"/>
</g>
<g opacity="0.1">
<path d="M1201.51 933.166L1274.17 540.115L1265.7 538.072L1192.76 931.124C1195.69 933.999 1197.71 934.004 1201.51 933.166Z" fill="#BDBDBD" stroke="#333333" stroke-width="6.49199" stroke-linecap="round" stroke-linejoin="round"/>
<path d="M979.743 530.486L944.727 696.518C963.006 704.536 974.527 707.658 981.838 696.518C984.782 692.032 987.043 685.233 988.789 675.509L1016.8 530.486C1003.45 537.82 995.464 538.661 979.743 530.486Z" fill="#D24646"/>
<path d="M988.789 675.509L1016.8 530.486C1003.45 537.82 995.464 538.661 979.743 530.486L944.727 696.518C963.006 704.536 974.527 707.658 981.838 696.518M988.789 675.509C987.043 685.233 984.782 692.032 981.838 696.518M988.789 675.509C978.796 677.184 974.58 679.038 970.406 684.555C978.91 686.683 982.699 688.492 981.838 696.518" stroke="#333333" stroke-width="6.49199" stroke-linecap="round" stroke-linejoin="round"/>
<path d="M1001.35 596.396C985.325 602.965 977.476 603.665 966.722 596.396L944 695.94C965.599 707.654 975.953 709.335 986.198 689.448L1001.35 596.396Z" fill="#E3E3E3" stroke="#333333" stroke-width="6.49199" stroke-linecap="round" stroke-linejoin="round"/>
<path d="M1133.81 538.072C1213.47 578.34 1264.25 540.99 1264.25 540.99L1233.61 709.941C1233.61 709.941 1190.13 724.823 1098.8 689.807C1007.46 654.791 970.114 684.555 970.114 684.555L1007.46 516.188C1007.46 516.188 1054.15 497.804 1133.81 538.072Z" fill="#EB5757" stroke="#333333" stroke-width="6.49199" stroke-linecap="round" stroke-linejoin="round"/>
<path d="M1129.02 615.872C1210.17 654.824 1249.12 627.774 1249.12 627.774L1233.98 708.924C1233.98 708.924 1193.94 727.318 1104.14 691.612C1014.33 655.906 971.05 682.956 971.05 682.956L990.526 593.15C990.526 593.15 1047.87 576.92 1129.02 615.872Z" fill="white" stroke="#333333" stroke-width="6.49199" stroke-linecap="round" stroke-linejoin="round"/>
<circle r="4.92434" transform="matrix(-1 0 0 1 1271.25 532.236)" fill="#C4C4C4" stroke="#333333" stroke-width="6.49199" stroke-linecap="round" stroke-linejoin="round"/>
</g>
<g opacity="0.1">
<path d="M503.741 322.44C503.561 322.273 503.354 322.188 503.125 322.188C502.289 322.188 501.404 323.367 500.624 324.408C500.329 324.801 499.94 325.319 499.741 325.491C499.718 325.094 500.017 323.968 500.242 323.121C500.809 320.981 501.396 318.768 500.44 318.253C500.341 318.2 500.236 318.172 500.128 318.172C499.439 318.172 498.913 319.204 498.111 320.887C497.483 322.204 496.702 323.844 496.056 323.844C496.015 323.844 495.975 323.837 495.933 323.822C495.819 323.619 495.829 322.69 495.837 322.007C495.856 320.217 495.878 318.189 494.743 318.038C494.709 318.033 494.675 318.031 494.641 318.031C493.66 318.031 493.087 319.868 492.481 321.813C492.185 322.761 491.739 324.193 491.486 324.29C491.147 324.222 490.461 323.198 489.91 322.375C489.006 321.025 488.143 319.756 487.344 319.822C486.511 319.891 486.524 321.074 486.537 322.326C486.548 323.355 486.563 324.635 486.048 324.912C485.998 324.939 485.944 324.952 485.883 324.952C485.311 324.952 484.37 323.926 483.614 323.102C482.733 322.141 482.168 321.552 481.68 321.552C481.56 321.552 481.446 321.59 481.352 321.66C480.815 322.063 480.845 323.28 480.878 324.569C480.894 325.218 480.918 326.188 480.785 326.393C480.537 326.36 479.83 325.89 479.204 325.475C477.819 324.555 476.095 323.409 474.704 323.409C474.475 323.409 474.26 323.441 474.065 323.504C472.557 323.99 472.267 324.704 472.076 325.177C471.976 325.424 471.925 325.536 471.786 325.596C471.612 325.67 471.331 325.641 471.022 325.594C470.817 325.563 470.605 325.531 470.38 325.531C469.883 325.531 469.472 325.701 469.123 326.05C468.767 326.405 468.45 326.826 468.143 327.233C467.686 327.839 467.254 328.411 466.838 328.567C466.618 328.65 466.178 329.11 464.938 330.428C462.21 333.326 456.533 339.357 453.624 339.357C453.079 339.357 452.673 339.139 452.38 338.691C451.898 337.95 451.174 336.592 450.258 334.873C447.366 329.445 442.995 321.242 439.277 319.321C429.42 314.229 420.997 306.062 416.471 301.675C414.004 299.282 413.127 298.455 412.67 298.455C412.54 298.455 412.427 298.513 412.358 298.617C412.225 298.814 412.273 299.122 412.533 299.754C413.32 301.67 415.125 304.298 416.575 306.409C417.413 307.629 418.346 308.989 418.597 309.558C417.915 309.243 416.604 307.857 415.527 306.719C413.63 304.716 412.421 303.499 411.623 303.499C411.47 303.499 411.335 303.542 411.222 303.628C410.611 304.093 411.49 305.331 413.096 307.48C413.736 308.336 414.679 309.597 414.797 310.032C414.456 309.96 413.699 309.361 413.083 308.873C412.039 308.047 410.959 307.193 410.17 307.193C410.019 307.193 409.88 307.225 409.758 307.286C409.577 307.376 409.46 307.523 409.417 307.711C409.287 308.284 409.886 309.11 410.814 310.306C411.219 310.826 411.818 311.598 411.865 311.873C411.828 311.881 411.787 311.885 411.743 311.885C411.32 311.885 410.702 311.556 410.104 311.238C409.448 310.89 408.829 310.561 408.318 310.561C408.144 310.561 407.988 310.6 407.856 310.676C407.274 311.013 407.8 312.059 408.357 313.167C408.51 313.47 408.708 313.864 408.78 314.072C408.643 314.091 408.416 314.091 408.253 314.092C407.727 314.092 407.183 314.093 406.887 314.394C406.763 314.52 406.699 314.688 406.701 314.878C406.713 315.597 418.103 340.015 431.516 349.425C433.311 350.685 434.007 352.936 434.68 355.114C434.926 355.909 435.158 356.66 435.439 357.342C435.54 357.588 435.541 357.793 435.443 357.989C435.021 358.834 432.833 359.396 430.518 359.99C429.181 360.334 427.8 360.689 426.46 361.151C409.765 363.206 409.766 364.132 409.766 364.578C409.766 365.475 410.362 365.903 410.798 366.216C411.238 366.531 411.301 366.62 411.224 366.815C411.122 367.069 410.878 367.331 410.619 367.608C410.061 368.208 409.366 368.953 409.783 370.066C409.934 370.468 410.429 370.664 411.297 370.664C412.796 370.664 415.231 370.099 417.02 369.621C413.002 371.918 413.002 372.337 413.002 372.488C413.002 372.692 413.002 373.073 415.314 373.073C417.622 373.073 421.279 372.655 423.987 371.478C424.825 371.114 425.538 370.764 426.228 370.426C426.879 370.107 427.496 369.804 428.115 369.543C435.181 369.924 446.055 370.368 453.553 370.368C457.773 370.368 460.43 370.227 461.451 369.948C462.819 369.575 464.386 368.969 466.046 368.328C469.108 367.145 472.275 365.921 474.728 365.921C475.23 365.921 475.689 365.975 476.09 366.081C479.684 367.026 481.058 369.873 481.072 369.901L481.126 370.017L481.25 370.048C481.271 370.054 481.387 370.081 481.565 370.081C482.083 370.081 483.35 369.837 483.943 367.576C484.292 366.247 483.612 365.267 483.359 364.96C483.422 364.238 483.568 360.664 480.567 358.291C478.746 356.851 476.939 356.189 475.744 355.75C475.179 355.543 474.405 355.26 474.419 355.109C474.542 354.327 482.144 338.782 493.004 335.327C501.399 332.656 503.417 327.403 503.894 325.269C504.186 323.959 504.124 322.795 503.741 322.44Z" fill="white"/>
<path d="M1191.16 457.733C1191.02 457.596 1190.84 457.526 1190.66 457.526C1189.96 457.526 1189.23 458.496 1188.59 459.352C1188.34 459.676 1188.02 460.102 1187.86 460.243C1187.84 459.917 1188.09 458.99 1188.27 458.293C1188.74 456.533 1189.23 454.712 1188.44 454.289C1188.36 454.245 1188.27 454.222 1188.18 454.222C1187.61 454.222 1187.18 455.071 1186.51 456.455C1185.99 457.539 1185.35 458.888 1184.82 458.888C1184.78 458.888 1184.75 458.882 1184.71 458.87C1184.62 458.703 1184.63 457.939 1184.63 457.377C1184.65 455.905 1184.67 454.236 1183.73 454.111C1183.7 454.108 1183.67 454.106 1183.65 454.106C1182.84 454.106 1182.36 455.617 1181.86 457.217C1181.62 457.997 1181.25 459.175 1181.04 459.255C1180.76 459.199 1180.19 458.357 1179.74 457.68C1178.99 456.569 1178.28 455.525 1177.62 455.579C1176.93 455.636 1176.94 456.609 1176.95 457.64C1176.96 458.486 1176.97 459.539 1176.55 459.767C1176.51 459.789 1176.46 459.799 1176.41 459.799C1175.94 459.799 1175.16 458.956 1174.54 458.278C1173.81 457.488 1173.34 457.003 1172.94 457.003C1172.84 457.003 1172.75 457.034 1172.67 457.092C1172.22 457.423 1172.25 458.424 1172.28 459.485C1172.29 460.019 1172.31 460.817 1172.2 460.986C1172 460.958 1171.41 460.572 1170.89 460.23C1169.75 459.473 1168.33 458.531 1167.18 458.531C1166.99 458.531 1166.81 458.557 1166.65 458.609C1165.4 459.008 1165.16 459.596 1165.01 459.985C1164.92 460.189 1164.88 460.281 1164.77 460.33C1164.62 460.391 1164.39 460.367 1164.13 460.328C1163.97 460.302 1163.79 460.276 1163.6 460.276C1163.19 460.276 1162.85 460.416 1162.57 460.703C1162.27 460.995 1162.01 461.342 1161.76 461.677C1161.38 462.175 1161.02 462.646 1160.68 462.774C1160.5 462.842 1160.13 463.22 1159.11 464.305C1156.85 466.689 1152.17 471.651 1149.76 471.651C1149.31 471.651 1148.98 471.472 1148.74 471.103C1148.34 470.493 1147.74 469.376 1146.98 467.962C1144.59 463.497 1140.98 456.748 1137.91 455.167C1129.77 450.978 1122.81 444.259 1119.07 440.649C1117.03 438.681 1116.31 438 1115.93 438C1115.82 438 1115.73 438.049 1115.67 438.133C1115.56 438.295 1115.6 438.549 1115.82 439.069C1116.47 440.645 1117.96 442.807 1119.16 444.544C1119.85 445.548 1120.62 446.667 1120.83 447.135C1120.26 446.876 1119.18 445.736 1118.29 444.8C1116.72 443.151 1115.73 442.15 1115.07 442.15C1114.94 442.15 1114.83 442.186 1114.73 442.256C1114.23 442.639 1114.96 443.657 1116.28 445.425C1116.81 446.13 1117.59 447.167 1117.69 447.525C1117.41 447.465 1116.78 446.973 1116.27 446.572C1115.41 445.892 1114.52 445.19 1113.87 445.19C1113.74 445.19 1113.63 445.215 1113.52 445.266C1113.38 445.34 1113.28 445.46 1113.24 445.615C1113.14 446.087 1113.63 446.767 1114.4 447.75C1114.73 448.179 1115.23 448.814 1115.27 449.04C1115.24 449.046 1115.2 449.049 1115.16 449.049C1114.82 449.049 1114.3 448.779 1113.81 448.517C1113.27 448.231 1112.76 447.96 1112.34 447.96C1112.19 447.96 1112.06 447.992 1111.95 448.055C1111.47 448.332 1111.91 449.193 1112.37 450.104C1112.49 450.353 1112.66 450.678 1112.72 450.849C1112.6 450.864 1112.42 450.865 1112.28 450.865C1111.85 450.866 1111.4 450.866 1111.15 451.114C1111.05 451.218 1111 451.355 1111 451.512C1111.01 452.103 1120.42 472.192 1131.5 479.934C1132.98 480.97 1133.56 482.823 1134.11 484.614C1134.32 485.268 1134.51 485.886 1134.74 486.447C1134.82 486.65 1134.82 486.819 1134.74 486.98C1134.39 487.675 1132.59 488.137 1130.67 488.626C1129.57 488.909 1128.43 489.201 1127.32 489.581C1113.53 491.272 1113.53 492.034 1113.53 492.401C1113.53 493.139 1114.02 493.491 1114.38 493.748C1114.75 494.007 1114.8 494.081 1114.74 494.241C1114.65 494.45 1114.45 494.666 1114.24 494.894C1113.78 495.387 1113.2 496 1113.55 496.916C1113.67 497.247 1114.08 497.408 1114.8 497.408C1116.04 497.408 1118.05 496.943 1119.52 496.55C1116.21 498.439 1116.2 498.784 1116.2 498.909C1116.2 499.077 1116.2 499.39 1118.11 499.39C1120.02 499.39 1123.04 499.046 1125.28 498.077C1125.97 497.778 1126.56 497.49 1127.13 497.212C1127.67 496.949 1128.18 496.701 1128.69 496.485C1134.53 496.799 1143.51 497.164 1149.7 497.164C1153.19 497.164 1155.39 497.048 1156.23 496.819C1157.36 496.512 1158.65 496.014 1160.02 495.486C1162.55 494.513 1165.17 493.506 1167.2 493.506C1167.61 493.506 1167.99 493.55 1168.32 493.637C1171.29 494.415 1172.43 496.757 1172.44 496.78L1172.48 496.875L1172.58 496.901C1172.6 496.906 1172.7 496.928 1172.84 496.928C1173.27 496.928 1174.32 496.727 1174.81 494.867C1175.1 493.774 1174.54 492.968 1174.33 492.715C1174.38 492.121 1174.5 489.181 1172.02 487.228C1170.52 486.044 1169.02 485.499 1168.04 485.138C1167.57 484.968 1166.93 484.734 1166.94 484.611C1167.04 483.967 1173.32 471.178 1182.29 468.336C1189.23 466.138 1190.9 461.817 1191.29 460.061C1191.53 458.983 1191.48 458.026 1191.16 457.733Z" fill="white"/>
<path d="M272.752 422.679C272.618 422.556 272.465 422.494 272.296 422.494C271.678 422.494 271.024 423.363 270.446 424.13C270.228 424.42 269.941 424.801 269.794 424.928C269.777 424.636 269.998 423.805 270.164 423.181C270.584 421.604 271.018 419.973 270.311 419.593C270.237 419.554 270.16 419.534 270.08 419.534C269.571 419.534 269.181 420.294 268.588 421.534C268.124 422.505 267.546 423.714 267.069 423.714C267.039 423.714 267.009 423.709 266.978 423.698C266.894 423.548 266.901 422.864 266.907 422.36C266.921 421.041 266.938 419.546 266.098 419.434C266.073 419.431 266.048 419.429 266.023 419.429C265.297 419.429 264.874 420.784 264.425 422.217C264.207 422.916 263.877 423.971 263.69 424.043C263.439 423.993 262.932 423.238 262.524 422.631C261.856 421.637 261.218 420.701 260.627 420.749C260.011 420.801 260.021 421.672 260.031 422.595C260.039 423.353 260.05 424.297 259.669 424.501C259.632 424.521 259.592 424.531 259.547 424.531C259.124 424.531 258.429 423.775 257.87 423.167C257.218 422.459 256.8 422.025 256.44 422.025C256.35 422.025 256.266 422.053 256.197 422.105C255.8 422.401 255.822 423.299 255.846 424.248C255.858 424.727 255.876 425.442 255.777 425.593C255.594 425.568 255.072 425.222 254.609 424.916C253.584 424.238 252.31 423.394 251.281 423.394C251.112 423.394 250.953 423.417 250.809 423.464C249.694 423.822 249.48 424.348 249.338 424.697C249.264 424.879 249.227 424.962 249.124 425.006C248.995 425.06 248.787 425.039 248.559 425.004C248.407 424.981 248.251 424.958 248.084 424.958C247.717 424.958 247.413 425.083 247.154 425.34C246.892 425.602 246.657 425.912 246.43 426.212C246.092 426.659 245.773 427.081 245.465 427.196C245.303 427.256 244.977 427.595 244.06 428.567C242.043 430.703 237.846 435.149 235.694 435.149C235.292 435.149 234.991 434.988 234.775 434.658C234.418 434.111 233.883 433.111 233.206 431.844C231.068 427.843 227.836 421.797 225.086 420.38C217.799 416.627 211.57 410.608 208.224 407.374C206.399 405.61 205.751 405 205.413 405C205.317 405 205.233 405.043 205.182 405.119C205.085 405.265 205.12 405.492 205.312 405.958C205.894 407.37 207.228 409.307 208.301 410.863C208.92 411.762 209.61 412.765 209.796 413.184C209.292 412.952 208.322 411.931 207.526 411.092C206.123 409.615 205.229 408.718 204.639 408.718C204.526 408.718 204.426 408.75 204.343 408.813C203.891 409.156 204.541 410.069 205.728 411.652C206.202 412.284 206.898 413.213 206.986 413.534C206.734 413.48 206.174 413.039 205.719 412.68C204.947 412.071 204.148 411.441 203.565 411.441C203.453 411.441 203.351 411.464 203.26 411.509C203.127 411.576 203.04 411.684 203.008 411.822C202.912 412.245 203.355 412.854 204.041 413.735C204.34 414.119 204.783 414.688 204.818 414.891C204.791 414.896 204.76 414.899 204.728 414.899C204.415 414.899 203.958 414.657 203.516 414.423C203.031 414.166 202.574 413.923 202.196 413.923C202.067 413.923 201.952 413.952 201.854 414.009C201.424 414.257 201.813 415.028 202.225 415.844C202.337 416.068 202.484 416.358 202.537 416.511C202.435 416.525 202.268 416.526 202.147 416.526C201.758 416.526 201.356 416.527 201.137 416.749C201.045 416.842 200.998 416.965 201 417.106C201.008 417.635 209.43 435.633 219.348 442.57C220.675 443.498 221.19 445.158 221.688 446.763C221.869 447.349 222.041 447.902 222.249 448.405C222.323 448.586 222.324 448.737 222.252 448.882C221.939 449.505 220.322 449.919 218.61 450.357C217.622 450.61 216.6 450.872 215.609 451.213C203.265 452.727 203.266 453.41 203.266 453.738C203.266 454.4 203.707 454.715 204.029 454.946C204.354 455.178 204.401 455.244 204.344 455.387C204.269 455.575 204.088 455.768 203.897 455.972C203.484 456.414 202.97 456.964 203.279 457.784C203.39 458.08 203.756 458.224 204.398 458.224C205.507 458.224 207.307 457.808 208.63 457.456C205.659 459.149 205.659 459.458 205.659 459.569C205.659 459.72 205.659 460 207.368 460C209.075 460 211.779 459.692 213.781 458.824C214.4 458.556 214.928 458.298 215.438 458.049C215.92 457.814 216.375 457.591 216.834 457.398C222.058 457.679 230.099 458.006 235.642 458.006C238.762 458.006 240.727 457.902 241.482 457.697C242.493 457.422 243.652 456.975 244.88 456.503C247.144 455.631 249.485 454.729 251.299 454.729C251.67 454.729 252.009 454.768 252.306 454.846C254.963 455.543 255.98 457.641 255.99 457.662L256.03 457.747L256.121 457.771C256.137 457.775 256.222 457.795 256.355 457.795C256.737 457.795 257.674 457.615 258.113 455.948C258.371 454.969 257.868 454.246 257.681 454.02C257.727 453.488 257.836 450.854 255.616 449.105C254.27 448.043 252.934 447.555 252.051 447.232C251.633 447.079 251.061 446.87 251.071 446.759C251.161 446.182 256.782 434.725 264.812 432.178C271.02 430.209 272.511 426.338 272.865 424.765C273.081 423.799 273.035 422.941 272.752 422.679Z" fill="white"/>
<path d="M972.143 222.323C972.268 222.205 972.412 222.145 972.571 222.145C973.153 222.145 973.769 222.981 974.312 223.719C974.517 223.998 974.787 224.365 974.925 224.487C974.942 224.206 974.734 223.407 974.577 222.806C974.182 221.288 973.774 219.719 974.439 219.354C974.508 219.316 974.581 219.296 974.657 219.296C975.135 219.296 975.502 220.028 976.06 221.221C976.497 222.156 977.04 223.319 977.489 223.319C977.518 223.319 977.546 223.314 977.575 223.303C977.654 223.159 977.647 222.5 977.642 222.016C977.628 220.747 977.613 219.308 978.403 219.201C978.426 219.198 978.45 219.196 978.473 219.196C979.156 219.196 979.555 220.499 979.976 221.878C980.182 222.551 980.492 223.566 980.668 223.635C980.904 223.587 981.381 222.86 981.765 222.277C982.394 221.32 982.994 220.419 983.55 220.466C984.129 220.515 984.12 221.354 984.111 222.242C984.103 222.972 984.093 223.88 984.451 224.076C984.486 224.095 984.524 224.104 984.566 224.104C984.964 224.104 985.618 223.377 986.144 222.793C986.757 222.111 987.15 221.694 987.49 221.694C987.574 221.694 987.653 221.72 987.718 221.77C988.092 222.056 988.071 222.919 988.048 223.833C988.037 224.294 988.02 224.981 988.113 225.127C988.285 225.103 988.777 224.77 989.212 224.475C990.176 223.823 991.375 223.01 992.343 223.01C992.502 223.01 992.651 223.033 992.787 223.078C993.837 223.422 994.038 223.929 994.171 224.264C994.241 224.44 994.276 224.519 994.373 224.561C994.494 224.614 994.689 224.593 994.904 224.56C995.047 224.538 995.194 224.515 995.351 224.515C995.697 224.515 995.983 224.636 996.226 224.883C996.473 225.135 996.693 225.434 996.907 225.723C997.225 226.152 997.525 226.558 997.815 226.669C997.968 226.727 998.274 227.053 999.137 227.988C1001.03 230.044 1004.98 234.321 1007.01 234.321C1007.39 234.321 1007.67 234.167 1007.87 233.849C1008.21 233.323 1008.71 232.36 1009.35 231.141C1011.36 227.291 1014.4 221.474 1016.99 220.111C1023.84 216.5 1029.7 210.707 1032.85 207.596C1034.57 205.899 1035.18 205.312 1035.5 205.312C1035.59 205.312 1035.67 205.353 1035.71 205.427C1035.81 205.566 1035.77 205.785 1035.59 206.234C1035.04 207.592 1033.79 209.456 1032.78 210.953C1032.2 211.819 1031.55 212.783 1031.37 213.187C1031.85 212.963 1032.76 211.981 1033.51 211.173C1034.83 209.752 1035.67 208.889 1036.23 208.889C1036.33 208.889 1036.43 208.92 1036.5 208.981C1036.93 209.31 1036.32 210.189 1035.2 211.713C1034.76 212.32 1034.1 213.215 1034.02 213.523C1034.25 213.472 1034.78 213.047 1035.21 212.701C1035.94 212.115 1036.69 211.51 1037.24 211.51C1037.34 211.51 1037.44 211.532 1037.52 211.575C1037.65 211.639 1037.73 211.743 1037.76 211.876C1037.85 212.283 1037.43 212.869 1036.79 213.717C1036.51 214.086 1036.09 214.634 1036.06 214.829C1036.08 214.834 1036.11 214.837 1036.14 214.837C1036.44 214.837 1036.87 214.604 1037.28 214.378C1037.74 214.131 1038.17 213.898 1038.52 213.898C1038.65 213.898 1038.75 213.926 1038.85 213.98C1039.25 214.219 1038.88 214.961 1038.5 215.746C1038.39 215.961 1038.25 216.241 1038.2 216.388C1038.3 216.402 1038.46 216.402 1038.57 216.402C1038.94 216.403 1039.31 216.403 1039.52 216.617C1039.61 216.706 1039.65 216.825 1039.65 216.96C1039.64 217.469 1031.72 234.788 1022.39 241.462C1021.14 242.355 1020.65 243.952 1020.19 245.496C1020.01 246.06 1019.85 246.593 1019.66 247.077C1019.59 247.251 1019.59 247.397 1019.65 247.536C1019.95 248.135 1021.47 248.533 1023.08 248.955C1024.01 249.199 1024.97 249.45 1025.9 249.778C1037.52 251.236 1037.52 251.893 1037.52 252.209C1037.52 252.845 1037.1 253.149 1036.8 253.37C1036.49 253.594 1036.45 253.657 1036.5 253.795C1036.57 253.976 1036.74 254.161 1036.92 254.358C1037.31 254.783 1037.8 255.312 1037.51 256.101C1037.4 256.387 1037.06 256.525 1036.45 256.525C1035.41 256.525 1033.72 256.124 1032.47 255.785C1035.27 257.415 1035.27 257.712 1035.27 257.819C1035.27 257.964 1035.27 258.234 1033.66 258.234C1032.05 258.234 1029.51 257.937 1027.62 257.103C1027.04 256.844 1026.55 256.596 1026.07 256.356C1025.61 256.13 1025.18 255.916 1024.75 255.73C1019.84 256.001 1012.27 256.315 1007.06 256.315C1004.12 256.315 1002.27 256.215 1001.56 256.018C1000.61 255.753 999.52 255.323 998.366 254.869C996.235 254.03 994.033 253.162 992.326 253.162C991.977 253.162 991.658 253.2 991.379 253.275C988.879 253.945 987.922 255.964 987.913 255.984L987.875 256.066L987.789 256.089C987.774 256.093 987.694 256.112 987.57 256.112C987.21 256.112 986.328 255.939 985.916 254.335C985.673 253.393 986.146 252.697 986.322 252.48C986.278 251.968 986.176 249.433 988.264 247.75C989.531 246.729 990.788 246.259 991.619 245.948C992.012 245.801 992.551 245.6 992.541 245.493C992.456 244.938 987.167 233.914 979.612 231.463C973.772 229.568 972.369 225.843 972.036 224.33C971.833 223.4 971.877 222.575 972.143 222.323Z" fill="white"/>
<path d="M1230.22 156.072C1230.34 155.96 1230.48 155.903 1230.64 155.903C1231.19 155.903 1231.78 156.693 1232.31 157.391C1232.5 157.654 1232.76 158.001 1232.89 158.117C1232.91 157.851 1232.71 157.096 1232.56 156.528C1232.18 155.094 1231.79 153.612 1232.43 153.267C1232.49 153.231 1232.56 153.212 1232.64 153.212C1233.1 153.212 1233.45 153.904 1233.98 155.031C1234.4 155.914 1234.92 157.013 1235.35 157.013C1235.38 157.013 1235.41 157.008 1235.44 156.998C1235.51 156.862 1235.51 156.24 1235.5 155.782C1235.49 154.583 1235.47 153.224 1236.23 153.122C1236.25 153.119 1236.28 153.118 1236.3 153.118C1236.95 153.118 1237.34 154.349 1237.74 155.652C1237.94 156.287 1238.24 157.247 1238.4 157.312C1238.63 157.266 1239.09 156.58 1239.46 156.028C1240.06 155.124 1240.64 154.274 1241.17 154.318C1241.73 154.364 1241.72 155.157 1241.71 155.996C1241.7 156.685 1241.69 157.543 1242.03 157.728C1242.07 157.746 1242.1 157.755 1242.14 157.755C1242.53 157.755 1243.15 157.068 1243.66 156.516C1244.25 155.872 1244.62 155.477 1244.95 155.477C1245.03 155.477 1245.11 155.502 1245.17 155.55C1245.53 155.82 1245.51 156.635 1245.49 157.499C1245.48 157.934 1245.46 158.584 1245.55 158.721C1245.71 158.699 1246.19 158.384 1246.6 158.105C1247.53 157.489 1248.68 156.722 1249.61 156.722C1249.76 156.722 1249.9 156.743 1250.03 156.785C1251.04 157.111 1251.23 157.589 1251.36 157.906C1251.43 158.072 1251.46 158.147 1251.55 158.187C1251.67 158.236 1251.86 158.217 1252.07 158.186C1252.2 158.165 1252.34 158.143 1252.49 158.143C1252.83 158.143 1253.1 158.257 1253.33 158.491C1253.57 158.729 1253.78 159.011 1253.99 159.284C1254.29 159.69 1254.58 160.073 1254.86 160.178C1255 160.233 1255.3 160.541 1256.13 161.424C1257.95 163.366 1261.74 167.408 1263.68 167.408C1264.04 167.408 1264.31 167.262 1264.51 166.961C1264.83 166.465 1265.31 165.555 1265.93 164.403C1267.86 160.766 1270.77 155.27 1273.26 153.982C1279.83 150.57 1285.46 145.098 1288.48 142.158C1290.13 140.554 1290.71 140 1291.02 140C1291.1 140 1291.18 140.04 1291.22 140.109C1291.31 140.241 1291.28 140.447 1291.11 140.871C1290.58 142.154 1289.38 143.915 1288.41 145.33C1287.85 146.148 1287.23 147.059 1287.06 147.44C1287.51 147.229 1288.39 146.301 1289.11 145.538C1290.37 144.195 1291.18 143.38 1291.71 143.38C1291.82 143.38 1291.91 143.409 1291.98 143.467C1292.39 143.778 1291.8 144.608 1290.73 146.048C1290.3 146.622 1289.68 147.467 1289.6 147.758C1289.82 147.709 1290.33 147.308 1290.74 146.981C1291.44 146.428 1292.16 145.856 1292.68 145.856C1292.79 145.856 1292.88 145.877 1292.96 145.918C1293.08 145.978 1293.16 146.076 1293.19 146.202C1293.27 146.586 1292.87 147.14 1292.25 147.941C1291.98 148.29 1291.58 148.807 1291.55 148.992C1291.58 148.997 1291.61 148.999 1291.63 148.999C1291.92 148.999 1292.33 148.779 1292.73 148.566C1293.17 148.333 1293.58 148.112 1293.92 148.112C1294.04 148.112 1294.14 148.138 1294.23 148.19C1294.62 148.415 1294.27 149.116 1293.89 149.858C1293.79 150.061 1293.66 150.325 1293.61 150.465C1293.7 150.478 1293.86 150.478 1293.96 150.478C1294.32 150.479 1294.68 150.479 1294.88 150.681C1294.96 150.765 1295 150.878 1295 151.005C1294.99 151.486 1287.39 167.849 1278.44 174.154C1277.24 174.998 1276.77 176.507 1276.32 177.966C1276.16 178.499 1276 179.002 1275.82 179.459C1275.75 179.624 1275.75 179.761 1275.81 179.893C1276.1 180.459 1277.56 180.835 1279.1 181.234C1279.99 181.464 1280.92 181.702 1281.81 182.011C1292.95 183.388 1292.95 184.009 1292.95 184.308C1292.95 184.909 1292.56 185.196 1292.27 185.405C1291.97 185.616 1291.93 185.676 1291.98 185.806C1292.05 185.977 1292.21 186.152 1292.38 186.338C1292.76 186.74 1293.22 187.24 1292.94 187.985C1292.84 188.255 1292.51 188.386 1291.93 188.386C1290.93 188.386 1289.31 188.007 1288.11 187.687C1290.79 189.226 1290.79 189.507 1290.79 189.608C1290.79 189.745 1290.79 190 1289.25 190C1287.71 190 1285.27 189.72 1283.46 188.931C1282.9 188.687 1282.43 188.453 1281.97 188.226C1281.53 188.012 1281.12 187.81 1280.71 187.635C1275.99 187.89 1268.73 188.187 1263.73 188.187C1260.91 188.187 1259.14 188.093 1258.45 187.906C1257.54 187.656 1256.49 187.25 1255.39 186.821C1253.34 186.028 1251.23 185.208 1249.59 185.208C1249.26 185.208 1248.95 185.244 1248.68 185.315C1246.28 185.948 1245.37 187.856 1245.36 187.875L1245.32 187.952L1245.24 187.973C1245.22 187.977 1245.15 187.995 1245.03 187.995C1244.68 187.995 1243.84 187.832 1243.44 186.317C1243.21 185.426 1243.66 184.769 1243.83 184.564C1243.79 184.08 1243.69 181.685 1245.69 180.095C1246.91 179.13 1248.12 178.686 1248.91 178.393C1249.29 178.254 1249.81 178.064 1249.8 177.963C1249.72 177.439 1244.64 167.023 1237.39 164.707C1231.79 162.917 1230.44 159.398 1230.12 157.968C1229.93 157.09 1229.97 156.31 1230.22 156.072Z" fill="white"/>
<path d="M908.519 398.326C908.582 398.265 908.654 398.234 908.734 398.234C909.025 398.234 909.332 398.668 909.604 399.052C909.707 399.197 909.842 399.388 909.911 399.452C909.919 399.305 909.815 398.89 909.737 398.578C909.539 397.788 909.335 396.972 909.668 396.782C909.702 396.763 909.739 396.753 909.776 396.753C910.016 396.753 910.199 397.133 910.478 397.754C910.696 398.239 910.968 398.844 911.193 398.844C911.207 398.844 911.221 398.841 911.235 398.836C911.275 398.761 911.271 398.419 911.269 398.167C911.262 397.507 911.254 396.759 911.649 396.703C911.661 396.701 911.673 396.7 911.685 396.7C912.026 396.7 912.225 397.378 912.436 398.095C912.539 398.445 912.694 398.973 912.782 399.009C912.9 398.984 913.139 398.606 913.33 398.302C913.645 397.805 913.945 397.337 914.223 397.361C914.513 397.386 914.508 397.823 914.503 398.284C914.5 398.664 914.495 399.136 914.674 399.238C914.691 399.248 914.71 399.253 914.731 399.253C914.93 399.253 915.257 398.875 915.52 398.571C915.827 398.216 916.023 397.999 916.193 397.999C916.235 397.999 916.274 398.013 916.307 398.039C916.494 398.187 916.483 398.636 916.472 399.112C916.466 399.351 916.458 399.709 916.504 399.784C916.591 399.772 916.836 399.599 917.054 399.446C917.536 399.106 918.136 398.684 918.619 398.684C918.699 398.684 918.774 398.696 918.842 398.719C919.366 398.898 919.467 399.161 919.534 399.336C919.568 399.427 919.586 399.468 919.634 399.49C919.695 399.518 919.793 399.507 919.9 399.49C919.971 399.478 920.045 399.466 920.124 399.466C920.296 399.466 920.439 399.529 920.561 399.658C920.684 399.789 920.795 399.944 920.902 400.094C921.06 400.318 921.211 400.529 921.355 400.586C921.432 400.617 921.585 400.786 922.016 401.272C922.965 402.341 924.94 404.566 925.952 404.566C926.141 404.566 926.283 404.485 926.384 404.32C926.552 404.046 926.804 403.546 927.122 402.912C928.128 400.91 929.649 397.885 930.942 397.176C934.37 395.298 937.3 392.286 938.874 390.668C939.733 389.786 940.038 389.481 940.197 389.481C940.242 389.481 940.281 389.502 940.305 389.54C940.351 389.613 940.335 389.727 940.244 389.96C939.97 390.666 939.343 391.636 938.838 392.414C938.547 392.864 938.222 393.366 938.135 393.576C938.372 393.459 938.828 392.948 939.203 392.529C939.863 391.79 940.283 391.341 940.561 391.341C940.614 391.341 940.661 391.357 940.7 391.389C940.913 391.56 940.607 392.017 940.048 392.809C939.826 393.125 939.498 393.59 939.457 393.75C939.575 393.724 939.839 393.503 940.053 393.323C940.416 393.018 940.792 392.703 941.066 392.703C941.119 392.703 941.167 392.715 941.21 392.737C941.272 392.771 941.313 392.825 941.328 392.894C941.373 393.106 941.165 393.41 940.842 393.851C940.701 394.043 940.493 394.328 940.477 394.429C940.49 394.432 940.504 394.434 940.519 394.434C940.666 394.434 940.881 394.312 941.089 394.195C941.317 394.067 941.532 393.945 941.71 393.945C941.771 393.945 941.825 393.96 941.871 393.988C942.073 394.112 941.89 394.498 941.697 394.906C941.644 395.018 941.575 395.164 941.55 395.24C941.597 395.247 941.676 395.247 941.733 395.248C941.916 395.248 942.105 395.248 942.208 395.359C942.251 395.406 942.274 395.467 942.273 395.538C942.269 395.803 938.307 404.808 933.641 408.279C933.017 408.743 932.775 409.574 932.541 410.377C932.455 410.67 932.375 410.947 932.277 411.198C932.242 411.289 932.241 411.365 932.275 411.437C932.422 411.749 933.183 411.956 933.989 412.175C934.453 412.302 934.934 412.433 935.4 412.603C941.207 413.361 941.207 413.703 941.207 413.867C941.207 414.198 940.999 414.356 940.848 414.471C940.695 414.587 940.673 414.62 940.7 414.692C940.735 414.786 940.82 414.882 940.91 414.985C941.104 415.206 941.346 415.481 941.201 415.891C941.148 416.039 940.976 416.112 940.674 416.112C940.153 416.112 939.306 415.903 938.684 415.727C940.081 416.574 940.081 416.729 940.081 416.784C940.081 416.86 940.081 417 939.277 417C938.474 417 937.202 416.846 936.26 416.412C935.969 416.278 935.721 416.148 935.481 416.024C935.254 415.906 935.04 415.795 934.824 415.698C932.367 415.839 928.584 416.002 925.976 416.002C924.509 416.002 923.584 415.95 923.229 415.848C922.753 415.71 922.208 415.487 921.631 415.25C920.566 414.814 919.464 414.363 918.611 414.363C918.436 414.363 918.277 414.382 918.137 414.421C916.887 414.77 916.409 415.82 916.404 415.83L916.386 415.873L916.343 415.885C916.335 415.887 916.295 415.897 916.233 415.897C916.053 415.897 915.612 415.807 915.406 414.973C915.284 414.483 915.521 414.121 915.609 414.008C915.587 413.742 915.536 412.424 916.58 411.548C917.214 411.017 917.842 410.773 918.258 410.611C918.454 410.535 918.723 410.43 918.719 410.375C918.676 410.086 916.032 404.354 912.254 403.079C909.334 402.094 908.632 400.157 908.466 399.37C908.365 398.887 908.386 398.458 908.519 398.326Z" fill="white"/>
<path d="M334.567 125.853C334.48 125.773 334.381 125.732 334.272 125.732C333.872 125.732 333.449 126.301 333.075 126.803C332.934 126.992 332.749 127.242 332.654 127.325C332.642 127.134 332.785 126.59 332.893 126.182C333.164 125.15 333.445 124.083 332.988 123.834C332.94 123.808 332.89 123.795 332.838 123.795C332.509 123.795 332.257 124.293 331.874 125.104C331.573 125.74 331.2 126.53 330.891 126.53C330.871 126.53 330.852 126.527 330.832 126.52C330.778 126.422 330.783 125.974 330.786 125.645C330.796 124.782 330.806 123.803 330.263 123.73C330.247 123.728 330.23 123.727 330.214 123.727C329.745 123.727 329.471 124.613 329.181 125.551C329.04 126.008 328.826 126.699 328.705 126.746C328.543 126.713 328.215 126.219 327.951 125.822C327.519 125.171 327.106 124.559 326.724 124.591C326.326 124.624 326.332 125.195 326.339 125.799C326.344 126.295 326.351 126.912 326.104 127.046C326.081 127.058 326.055 127.065 326.026 127.065C325.752 127.065 325.302 126.57 324.941 126.173C324.519 125.709 324.249 125.425 324.016 125.425C323.958 125.425 323.904 125.443 323.859 125.477C323.602 125.672 323.616 126.259 323.632 126.88C323.639 127.193 323.651 127.661 323.587 127.76C323.469 127.744 323.131 127.517 322.831 127.317C322.169 126.873 321.344 126.321 320.679 126.321C320.57 126.321 320.467 126.336 320.374 126.367C319.652 126.601 319.514 126.945 319.422 127.173C319.374 127.293 319.35 127.347 319.284 127.375C319.2 127.411 319.066 127.397 318.918 127.375C318.82 127.36 318.719 127.344 318.611 127.344C318.373 127.344 318.177 127.426 318.01 127.594C317.84 127.766 317.688 127.969 317.541 128.165C317.323 128.457 317.116 128.733 316.917 128.808C316.812 128.848 316.601 129.07 316.008 129.706C314.703 131.104 311.989 134.012 310.597 134.012C310.337 134.012 310.142 133.907 310.003 133.691C309.772 133.333 309.426 132.679 308.988 131.85C307.604 129.232 305.514 125.276 303.735 124.349C299.022 121.894 294.993 117.955 292.829 115.839C291.648 114.685 291.229 114.286 291.01 114.286C290.948 114.286 290.894 114.314 290.861 114.364C290.798 114.459 290.821 114.608 290.945 114.913C291.321 115.836 292.184 117.104 292.878 118.122C293.279 118.71 293.725 119.366 293.845 119.641C293.519 119.489 292.892 118.821 292.377 118.272C291.47 117.305 290.891 116.718 290.51 116.718C290.437 116.718 290.372 116.739 290.318 116.781C290.026 117.005 290.446 117.602 291.214 118.638C291.52 119.051 291.971 119.66 292.028 119.869C291.865 119.834 291.502 119.546 291.208 119.311C290.709 118.912 290.192 118.5 289.815 118.5C289.743 118.5 289.676 118.515 289.618 118.545C289.531 118.588 289.475 118.659 289.455 118.75C289.392 119.026 289.679 119.425 290.123 120.001C290.316 120.252 290.603 120.625 290.626 120.757C290.608 120.761 290.588 120.763 290.567 120.763C290.365 120.763 290.069 120.604 289.783 120.451C289.47 120.283 289.174 120.124 288.929 120.124C288.846 120.124 288.771 120.143 288.708 120.18C288.43 120.342 288.681 120.847 288.948 121.381C289.021 121.527 289.116 121.717 289.15 121.818C289.084 121.827 288.976 121.827 288.898 121.827C288.646 121.828 288.386 121.828 288.245 121.973C288.185 122.034 288.155 122.115 288.156 122.207C288.161 122.553 293.609 134.329 300.024 138.868C300.882 139.475 301.215 140.561 301.537 141.611C301.655 141.995 301.766 142.357 301.9 142.686C301.948 142.804 301.949 142.904 301.902 142.998C301.7 143.405 300.654 143.676 299.546 143.963C298.907 144.129 298.247 144.3 297.606 144.523C289.621 145.514 289.622 145.961 289.622 146.176C289.622 146.608 289.907 146.815 290.115 146.966C290.325 147.118 290.356 147.161 290.319 147.254C290.27 147.377 290.153 147.503 290.03 147.637C289.763 147.926 289.43 148.286 289.63 148.823C289.702 149.017 289.939 149.111 290.354 149.111C291.071 149.111 292.235 148.838 293.091 148.608C291.169 149.716 291.169 149.918 291.169 149.991C291.169 150.089 291.169 150.273 292.275 150.273C293.379 150.273 295.128 150.071 296.423 149.503C296.824 149.328 297.165 149.159 297.495 148.996C297.806 148.842 298.101 148.696 298.397 148.57C301.776 148.754 306.977 148.968 310.563 148.968C312.581 148.968 313.852 148.9 314.34 148.766C314.995 148.586 315.744 148.294 316.538 147.984C318.003 147.414 319.517 146.824 320.691 146.824C320.931 146.824 321.15 146.85 321.342 146.901C323.061 147.356 323.718 148.729 323.725 148.743L323.751 148.799L323.81 148.814C323.82 148.817 323.875 148.83 323.961 148.83C324.208 148.83 324.814 148.712 325.098 147.622C325.265 146.981 324.939 146.508 324.818 146.36C324.849 146.012 324.919 144.288 323.483 143.144C322.612 142.449 321.748 142.13 321.177 141.918C320.906 141.819 320.536 141.682 320.543 141.609C320.601 141.232 324.237 133.735 329.431 132.069C333.447 130.78 334.411 128.247 334.64 127.218C334.779 126.586 334.75 126.025 334.567 125.853Z" fill="white"/>
</g>
<path d="M652.141 524.152C589.755 458.483 544.881 539.475 544.881 539.475L643.385 630.318C643.385 630.318 714.526 589.822 652.141 524.152Z" fill="white" stroke="#333333" stroke-width="6.56693" stroke-linecap="round" stroke-linejoin="round"/>
<path d="M522.991 492.412C464.983 502.263 507.668 552.609 507.668 552.609L593.038 542.759C593.038 542.759 580.999 482.562 522.991 492.412Z" fill="white" stroke="#333333" stroke-width="6.56693" stroke-linecap="round" stroke-linejoin="round"/>
<path fill-rule="evenodd" clip-rule="evenodd" d="M676.116 821.858H418.052C423.384 796.885 448.646 747.429 508.568 744.433C569 741.411 596.698 747.37 602.993 750.728C630.135 756.991 682.539 779.957 676.116 821.858Z" fill="#BB6BD9"/>
<path d="M418.052 821.858V825.142C417.061 825.142 416.123 824.694 415.499 823.924C414.876 823.153 414.634 822.142 414.841 821.173L418.052 821.858ZM676.116 821.858L679.362 822.356C679.116 823.958 677.737 825.142 676.116 825.142V821.858ZM508.568 744.433L508.404 741.153L508.568 744.433ZM602.993 750.728L602.255 753.927C601.974 753.862 601.702 753.761 601.448 753.625L602.993 750.728ZM418.052 818.575H676.116V825.142H418.052V818.575ZM508.732 747.712C450.932 750.602 426.441 798.292 421.263 822.544L414.841 821.173C420.327 795.478 446.36 744.256 508.404 741.153L508.732 747.712ZM601.448 753.625C600.273 752.998 597.71 752.073 593.369 751.108C589.098 750.159 583.289 749.211 575.754 748.455C560.687 746.943 538.823 746.208 508.732 747.712L508.404 741.153C538.745 739.636 560.946 740.369 576.41 741.921C584.14 742.697 590.213 743.68 594.794 744.698C599.306 745.7 602.566 746.778 604.538 747.831L601.448 753.625ZM672.871 821.361C675.821 802.114 665.387 786.962 650.172 775.556C634.95 764.146 615.525 756.99 602.255 753.927L603.731 747.528C617.603 750.729 637.951 758.188 654.111 770.302C670.277 782.42 682.834 799.702 679.362 822.356L672.871 821.361Z" fill="#333333"/>
<path d="M508.568 548.687C487.192 664.146 508.568 717.876 544.881 705.837C545.146 727.64 547.976 756.053 561.446 758.94C589.197 764.888 600.475 757.681 604.252 748.868C602.087 710.273 606.683 691.609 629.432 665.774C655.871 673.328 665.943 629.263 642.022 629.263C645.865 543.003 609.778 532.083 508.568 548.687Z" fill="#F6CBAB" stroke="#333333" stroke-width="6.56693" stroke-linecap="round" stroke-linejoin="round"/>
<path d="M620.4 589.821C620.81 611.372 624.023 620.757 640.101 628.128C664.18 536.192 506.574 505.546 506.574 558.081C514.564 567.137 522.624 567.564 544.881 558.081C557.277 572.501 568.079 573.972 593.038 566.837C599.645 581.62 605.388 587.009 620.4 589.821Z" fill="#333333" stroke="#333333" stroke-width="6.56693" stroke-linecap="round" stroke-linejoin="round"/>
<path d="M533.748 600.306C526.194 612.057 507.93 645.126 510.952 648.148C513.973 651.169 525.355 646.469 528.712 648.148" stroke="#333333" stroke-width="6.56693" stroke-linecap="round" stroke-linejoin="round"/>
<path d="M528.712 579.226C523.256 572.931 514.863 570.09 507.309 573.867" stroke="#333333" stroke-width="6.56693" stroke-linecap="round" stroke-linejoin="round"/>
<path d="M553.892 589.546C564.384 581.153 588.892 580.917 597.957 599.047" stroke="#333333" stroke-width="6.56693" stroke-linecap="round" stroke-linejoin="round"/>
<path d="M518.64 667.033C526.194 670.81 552.804 667.033 555.826 667.033" stroke="#333333" stroke-width="6.56693" stroke-linecap="round" stroke-linejoin="round"/>
<path d="M554.731 602.956C559.474 600.767 570.054 601.866 574.432 607.334M525.18 595.294C522.626 593.105 515.986 589.384 509.857 592.011" stroke="#333333" stroke-width="6.56693" stroke-linecap="round" stroke-linejoin="round"/>
<path fill-rule="evenodd" clip-rule="evenodd" d="M835.286 748.544C808.008 754.839 755.214 778.005 762.264 820.307C762.352 820.832 762.453 821.349 762.569 821.858H1015.04C1009.28 796.246 988.419 745.185 929.711 742.249C869.279 739.228 841.581 745.187 835.286 748.544Z" fill="#6FCF97"/>
<path d="M762.264 820.307L765.503 819.767H765.503L762.264 820.307ZM835.286 748.544L836.024 751.744C836.305 751.679 836.577 751.577 836.831 751.441L835.286 748.544ZM762.569 821.858L759.367 822.585C759.706 824.081 761.036 825.142 762.569 825.142V821.858ZM1015.04 821.858V825.142C1016.04 825.142 1016.98 824.689 1017.61 823.91C1018.23 823.131 1018.46 822.111 1018.25 821.138L1015.04 821.858ZM929.711 742.249L929.875 738.97L929.711 742.249ZM765.503 819.767C762.263 800.328 772.637 785.044 787.879 773.544C803.134 762.035 822.686 754.822 836.024 751.744L834.548 745.345C820.608 748.562 800.124 756.079 783.924 768.302C767.712 780.534 755.215 797.984 759.025 820.847L765.503 819.767ZM765.771 821.131C765.669 820.684 765.58 820.23 765.503 819.767L759.025 820.847C759.123 821.434 759.237 822.013 759.367 822.585L765.771 821.131ZM762.569 825.142H1015.04V818.575H762.569V825.142ZM929.547 745.529C957.838 746.943 976.907 759.899 989.684 775.621C1002.53 791.433 1009.03 810.076 1011.84 822.579L1018.25 821.138C1015.3 808.028 1008.48 788.334 994.78 771.479C981.008 754.533 960.292 740.491 929.875 738.97L929.547 745.529ZM836.831 751.441C838.006 750.815 840.569 749.889 844.91 748.925C849.182 747.975 854.99 747.028 862.525 746.272C877.592 744.76 899.456 744.024 929.547 745.529L929.875 738.97C899.534 737.453 877.333 738.186 861.869 739.737C854.139 740.513 848.066 741.496 843.485 742.514C838.974 743.517 835.714 744.595 833.741 745.647L836.831 751.441Z" fill="#333333"/>
<path d="M929.711 546.503C951.087 661.962 953.569 715.115 873.056 706.396C884.807 717.727 902.013 743.663 876.833 756.756C851.653 769.85 837.804 755.497 834.027 746.684C836.192 708.09 831.596 689.425 808.847 663.59C782.408 671.144 772.336 627.079 796.257 627.079C792.414 540.819 828.501 529.9 929.711 546.503Z" fill="#F6CBAB" stroke="#333333" stroke-width="6.56693" stroke-linecap="round" stroke-linejoin="round"/>
<path d="M904.531 598.122C912.085 609.873 926.438 634.13 923.416 637.151C920.394 640.173 912.924 644.286 909.567 645.964" stroke="#333333" stroke-width="6.56693" stroke-linecap="round" stroke-linejoin="round"/>
<path d="M909.567 577.043C915.023 570.748 923.416 567.906 930.97 571.683" stroke="#333333" stroke-width="6.56693" stroke-linecap="round" stroke-linejoin="round"/>
<path d="M884.387 587.363C873.895 578.97 849.387 578.734 840.322 596.863" stroke="#333333" stroke-width="6.56693" stroke-linecap="round" stroke-linejoin="round"/>
<ellipse rx="3.777" ry="7.554" transform="matrix(-1 0 0 1 880.61 608.194)" fill="#333333"/>
<ellipse rx="3.777" ry="7.554" transform="matrix(-1 0 0 1 925.934 600.64)" fill="#333333"/>
<path d="M919.639 664.849C912.085 668.626 896.222 676.18 893.2 676.18" stroke="#333333" stroke-width="6.56693" stroke-linecap="round" stroke-linejoin="round"/>
<path d="M875.574 557.835C828.991 569.166 796.476 587.106 815.142 647.224C806.176 645.534 801.23 644.129 794.998 627.08C783.822 626.337 725.763 524.251 794.998 515.029C864.233 505.807 926.486 492.049 963.704 476C975.035 551.54 922.157 546.504 875.574 557.835Z" fill="#333333" stroke="#333333" stroke-width="6.56693" stroke-linecap="round" stroke-linejoin="round"/>
<path d="M649.955 655.496C552.545 575.599 649.955 477.095 713.435 516.496C802.089 478.189 856.813 581.071 780.199 655.496C780.199 655.496 820.695 685.047 788.955 712.41C757.214 739.772 717.813 694.898 717.813 694.898C717.813 694.898 683.884 741.961 647.766 716.788C611.647 691.614 649.955 655.496 649.955 655.496Z" fill="#333333" stroke="#333333" stroke-width="6.56693" stroke-linecap="round" stroke-linejoin="round"/>
<path d="M709.057 713.504C632.443 713.504 630.254 607.339 630.254 607.339C679.949 590.739 697.795 575.778 714.529 540.575C727.978 578.785 745.718 592.786 785.671 611.717C785.671 611.717 785.671 713.504 709.057 713.504Z" fill="#F6CBAB" stroke="#333333" stroke-width="6.56693" stroke-linecap="round" stroke-linejoin="round"/>
<path fill-rule="evenodd" clip-rule="evenodd" d="M589.687 821.858H851.755C852.437 774.878 817.909 759.491 746.27 749.622H684.978C656.609 753.447 603.288 773.146 589.687 821.858Z" fill="#F08300"/>
<path d="M589.687 821.858L586.525 820.975C586.248 821.964 586.451 823.026 587.072 823.844C587.693 824.661 588.66 825.142 589.687 825.142V821.858ZM851.755 821.858V825.142C853.55 825.142 855.012 823.701 855.038 821.906L851.755 821.858ZM746.27 749.622L746.718 746.369C746.569 746.349 746.419 746.339 746.27 746.339V749.622ZM684.978 749.622V746.339C684.832 746.339 684.685 746.349 684.54 746.368L684.978 749.622ZM589.687 825.142H851.755V818.575H589.687V825.142ZM745.821 752.875C781.641 757.809 807.544 764.063 824.391 774.607C832.733 779.827 838.775 786.055 842.721 793.653C846.675 801.266 848.636 810.471 848.472 821.811L855.038 821.906C855.214 809.755 853.116 799.42 848.549 790.626C843.974 781.817 837.035 774.773 827.875 769.04C809.719 757.678 782.538 751.304 746.718 746.369L745.821 752.875ZM684.978 752.906H746.27V746.339H684.978V752.906ZM592.85 822.741C599.365 799.407 615.416 782.901 633.522 771.7C651.653 760.484 671.623 754.736 685.417 752.876L684.54 746.368C669.965 748.333 649.09 754.347 630.067 766.115C611.02 777.898 593.61 795.598 586.525 820.975L592.85 822.741Z" fill="#333333"/>
<path d="M692.64 760.567V708.032H736.419V760.567H692.64Z" fill="#F6CBAB" stroke="#333333" stroke-width="6.56693" stroke-linecap="round" stroke-linejoin="round"/>
<path d="M714.529 760.567C705.774 751.811 703.528 746.759 688.262 739.772C688.262 739.772 676.222 755.095 691.545 766.04C706.868 776.984 714.529 760.567 714.529 760.567Z" fill="#E37C00" stroke="#333333" stroke-width="6.56693" stroke-linecap="round" stroke-linejoin="round"/>
<path d="M716.718 760.567C725.474 748.528 730.947 745.244 741.892 738.677C741.892 738.677 755.025 755.095 739.703 766.04C724.38 776.984 716.718 760.567 716.718 760.567Z" fill="#E37C00" stroke="#333333" stroke-width="6.56693" stroke-linecap="round" stroke-linejoin="round"/>
<path d="M782.388 651.118C781.293 642.362 637.915 644.551 633.537 651.118C629.159 657.685 645.577 716.788 711.246 716.788C776.915 716.788 783.482 659.874 782.388 651.118Z" fill="white" stroke="#333333" stroke-width="6.56693" stroke-linecap="round" stroke-linejoin="round"/>
<path d="M744.081 809.819V802.158L787.86 796.685V805.441L744.081 809.819Z" fill="white" stroke="#333333" stroke-width="6.56693" stroke-linecap="round" stroke-linejoin="round"/>
<path d="M734.23 620.473C737.149 617.919 744.737 614.344 751.742 620.473" stroke="#333333" stroke-width="6.56693" stroke-linecap="round" stroke-linejoin="round"/>
<path d="M687.167 620.473C684.249 617.919 676.66 614.344 669.655 620.473" stroke="#333333" stroke-width="6.56693" stroke-linecap="round" stroke-linejoin="round"/>
<path d="M730.947 606.244C736.054 601.866 749.334 595.299 761.592 604.055" stroke="#333333" stroke-width="6.56693" stroke-linecap="round" stroke-linejoin="round"/>
<path d="M690.451 606.244C685.343 601.866 672.063 595.299 659.805 604.055" stroke="#333333" stroke-width="6.56693" stroke-linecap="round" stroke-linejoin="round"/>
</g>
</svg>
