<svg width="1440" height="816" viewBox="0 0 1440 816" fill="none" xmlns="http://www.w3.org/2000/svg">
<mask id="mask0" mask-type="alpha" maskUnits="userSpaceOnUse" x="-1275" y="-3174" width="3990" height="3990">
<circle cx="720" cy="-1179" r="1995" fill="#C4C4C4"/>
</mask>
<g mask="url(#mask0)">
<rect x="1" width="1439" height="816" fill="#F08300"/>
<g opacity="0.1">
<path d="M237.91 933.166L165.252 540.115L173.714 538.072L246.664 931.124C243.725 933.999 241.706 934.004 237.91 933.166Z" fill="#BDBDBD" stroke="#333333" stroke-width="6.49199" stroke-linecap="round" stroke-linejoin="round"/>
<path d="M459.676 530.486L494.692 696.518C476.413 704.536 464.893 707.658 457.582 696.518C454.637 692.032 452.376 685.233 450.63 675.509L422.618 530.486C435.969 537.82 443.955 538.661 459.676 530.486Z" fill="#D24646"/>
<path d="M450.63 675.509L422.618 530.486C435.969 537.82 443.955 538.661 459.676 530.486L494.692 696.518C476.413 704.536 464.893 707.658 457.582 696.518M450.63 675.509C452.376 685.233 454.637 692.032 457.582 696.518M450.63 675.509C460.623 677.184 464.839 679.038 469.014 684.555C460.509 686.683 456.72 688.492 457.582 696.518" stroke="#333333" stroke-width="6.49199" stroke-linecap="round" stroke-linejoin="round"/>
<path d="M438.073 596.396C454.094 602.965 461.944 603.665 472.697 596.396L495.419 695.94C473.821 707.654 463.467 709.335 453.221 689.448L438.073 596.396Z" fill="#E3E3E3" stroke="#333333" stroke-width="6.49199" stroke-linecap="round" stroke-linejoin="round"/>
<path d="M305.607 538.072C225.946 578.34 175.173 540.99 175.173 540.99L205.812 709.941C205.812 709.941 249.29 724.823 340.623 689.807C431.955 654.791 469.305 684.555 469.305 684.555L431.955 516.188C431.955 516.188 385.268 497.804 305.607 538.072Z" fill="#EB5757" stroke="#333333" stroke-width="6.49199" stroke-linecap="round" stroke-linejoin="round"/>
<path d="M310.398 615.872C229.248 654.824 190.296 627.774 190.296 627.774L205.444 708.924C205.444 708.924 245.478 727.318 335.284 691.612C425.089 655.906 468.369 682.956 468.369 682.956L448.893 593.15C448.893 593.15 391.547 576.92 310.398 615.872Z" fill="white" stroke="#333333" stroke-width="6.49199" stroke-linecap="round" stroke-linejoin="round"/>
<circle cx="168.17" cy="532.236" r="4.92434" fill="#C4C4C4" stroke="#333333" stroke-width="6.49199" stroke-linecap="round" stroke-linejoin="round"/>
</g>
<g opacity="0.1">
<path d="M1201.51 933.166L1274.17 540.115L1265.7 538.072L1192.76 931.124C1195.69 933.999 1197.71 934.004 1201.51 933.166Z" fill="#BDBDBD" stroke="#333333" stroke-width="6.49199" stroke-linecap="round" stroke-linejoin="round"/>
<path d="M979.743 530.486L944.727 696.518C963.006 704.536 974.527 707.658 981.838 696.518C984.782 692.032 987.043 685.233 988.789 675.509L1016.8 530.486C1003.45 537.82 995.464 538.661 979.743 530.486Z" fill="#D24646"/>
<path d="M988.789 675.509L1016.8 530.486C1003.45 537.82 995.464 538.661 979.743 530.486L944.727 696.518C963.006 704.536 974.527 707.658 981.838 696.518M988.789 675.509C987.043 685.233 984.782 692.032 981.838 696.518M988.789 675.509C978.796 677.184 974.58 679.038 970.406 684.555C978.91 686.683 982.699 688.492 981.838 696.518" stroke="#333333" stroke-width="6.49199" stroke-linecap="round" stroke-linejoin="round"/>
<path d="M1001.35 596.396C985.325 602.965 977.476 603.665 966.722 596.396L944 695.94C965.599 707.654 975.953 709.335 986.198 689.448L1001.35 596.396Z" fill="#E3E3E3" stroke="#333333" stroke-width="6.49199" stroke-linecap="round" stroke-linejoin="round"/>
<path d="M1133.81 538.072C1213.47 578.34 1264.25 540.99 1264.25 540.99L1233.61 709.941C1233.61 709.941 1190.13 724.823 1098.8 689.807C1007.46 654.791 970.114 684.555 970.114 684.555L1007.46 516.188C1007.46 516.188 1054.15 497.804 1133.81 538.072Z" fill="#EB5757" stroke="#333333" stroke-width="6.49199" stroke-linecap="round" stroke-linejoin="round"/>
<path d="M1129.02 615.872C1210.17 654.824 1249.12 627.774 1249.12 627.774L1233.98 708.924C1233.98 708.924 1193.94 727.318 1104.14 691.612C1014.33 655.906 971.05 682.956 971.05 682.956L990.526 593.15C990.526 593.15 1047.87 576.92 1129.02 615.872Z" fill="white" stroke="#333333" stroke-width="6.49199" stroke-linecap="round" stroke-linejoin="round"/>
<circle r="4.92434" transform="matrix(-1 0 0 1 1271.25 532.236)" fill="#C4C4C4" stroke="#333333" stroke-width="6.49199" stroke-linecap="round" stroke-linejoin="round"/>
</g>
<path d="M652.141 524.152C589.755 458.483 544.881 539.475 544.881 539.475L643.385 630.318C643.385 630.318 714.526 589.822 652.141 524.152Z" fill="white" stroke="#333333" stroke-width="6.56693" stroke-linecap="round" stroke-linejoin="round"/>
<path d="M522.991 492.412C464.983 502.263 507.668 552.609 507.668 552.609L593.038 542.759C593.038 542.759 580.999 482.562 522.991 492.412Z" fill="white" stroke="#333333" stroke-width="6.56693" stroke-linecap="round" stroke-linejoin="round"/>
<path fill-rule="evenodd" clip-rule="evenodd" d="M676.116 821.858H418.052C423.384 796.885 448.646 747.429 508.568 744.433C569 741.411 596.698 747.37 602.993 750.728C630.135 756.991 682.539 779.957 676.116 821.858Z" fill="#BB6BD9"/>
<path d="M418.052 821.858V825.142C417.061 825.142 416.123 824.694 415.499 823.924C414.876 823.153 414.634 822.142 414.841 821.173L418.052 821.858ZM676.116 821.858L679.362 822.356C679.116 823.958 677.737 825.142 676.116 825.142V821.858ZM508.568 744.433L508.404 741.153L508.568 744.433ZM602.993 750.728L602.255 753.927C601.974 753.862 601.702 753.761 601.448 753.625L602.993 750.728ZM418.052 818.575H676.116V825.142H418.052V818.575ZM508.732 747.712C450.932 750.602 426.441 798.292 421.263 822.544L414.841 821.173C420.327 795.478 446.36 744.256 508.404 741.153L508.732 747.712ZM601.448 753.625C600.273 752.998 597.71 752.073 593.369 751.108C589.098 750.159 583.289 749.211 575.754 748.455C560.687 746.943 538.823 746.208 508.732 747.712L508.404 741.153C538.745 739.636 560.946 740.369 576.41 741.921C584.14 742.697 590.213 743.68 594.794 744.698C599.306 745.7 602.566 746.778 604.538 747.831L601.448 753.625ZM672.871 821.361C675.821 802.114 665.387 786.962 650.172 775.556C634.95 764.146 615.525 756.99 602.255 753.927L603.731 747.528C617.603 750.729 637.951 758.188 654.111 770.302C670.277 782.42 682.834 799.702 679.362 822.356L672.871 821.361Z" fill="#333333"/>
<path d="M508.568 548.687C487.192 664.146 508.568 717.876 544.881 705.837C545.146 727.64 547.976 756.053 561.446 758.94C589.197 764.888 600.475 757.681 604.252 748.868C602.087 710.273 606.683 691.609 629.432 665.774C655.871 673.328 665.943 629.263 642.022 629.263C645.865 543.003 609.778 532.083 508.568 548.687Z" fill="#F6CBAB" stroke="#333333" stroke-width="6.56693" stroke-linecap="round" stroke-linejoin="round"/>
<path d="M620.4 589.821C620.81 611.372 624.023 620.757 640.101 628.128C664.18 536.192 506.574 505.546 506.574 558.081C514.564 567.137 522.624 567.564 544.881 558.081C557.277 572.501 568.079 573.972 593.038 566.837C599.645 581.62 605.388 587.009 620.4 589.821Z" fill="#333333" stroke="#333333" stroke-width="6.56693" stroke-linecap="round" stroke-linejoin="round"/>
<path d="M533.748 600.306C526.194 612.057 507.93 645.126 510.952 648.148C513.973 651.169 525.355 646.469 528.712 648.148" stroke="#333333" stroke-width="6.56693" stroke-linecap="round" stroke-linejoin="round"/>
<path d="M528.712 579.226C523.256 572.931 514.863 570.09 507.309 573.867" stroke="#333333" stroke-width="6.56693" stroke-linecap="round" stroke-linejoin="round"/>
<path d="M553.892 589.546C564.384 581.153 588.892 580.917 597.957 599.047" stroke="#333333" stroke-width="6.56693" stroke-linecap="round" stroke-linejoin="round"/>
<path d="M518.64 667.033C526.194 670.81 552.804 667.033 555.826 667.033" stroke="#333333" stroke-width="6.56693" stroke-linecap="round" stroke-linejoin="round"/>
<path d="M554.731 602.956C559.474 600.767 570.054 601.866 574.432 607.334M525.18 595.294C522.626 593.105 515.986 589.384 509.857 592.011" stroke="#333333" stroke-width="6.56693" stroke-linecap="round" stroke-linejoin="round"/>
<path fill-rule="evenodd" clip-rule="evenodd" d="M835.286 748.544C808.008 754.839 755.214 778.005 762.264 820.307C762.352 820.832 762.453 821.349 762.569 821.858H1015.04C1009.28 796.246 988.419 745.185 929.711 742.249C869.279 739.228 841.581 745.187 835.286 748.544Z" fill="#6FCF97"/>
<path d="M762.264 820.307L765.503 819.767H765.503L762.264 820.307ZM835.286 748.544L836.024 751.744C836.305 751.679 836.577 751.577 836.831 751.441L835.286 748.544ZM762.569 821.858L759.367 822.585C759.706 824.081 761.036 825.142 762.569 825.142V821.858ZM1015.04 821.858V825.142C1016.04 825.142 1016.98 824.689 1017.61 823.91C1018.23 823.131 1018.46 822.111 1018.25 821.138L1015.04 821.858ZM929.711 742.249L929.875 738.97L929.711 742.249ZM765.503 819.767C762.263 800.328 772.637 785.044 787.879 773.544C803.134 762.035 822.686 754.822 836.024 751.744L834.548 745.345C820.608 748.562 800.124 756.079 783.924 768.302C767.712 780.534 755.215 797.984 759.025 820.847L765.503 819.767ZM765.771 821.131C765.669 820.684 765.58 820.23 765.503 819.767L759.025 820.847C759.123 821.434 759.237 822.013 759.367 822.585L765.771 821.131ZM762.569 825.142H1015.04V818.575H762.569V825.142ZM929.547 745.529C957.838 746.943 976.907 759.899 989.684 775.621C1002.53 791.433 1009.03 810.076 1011.84 822.579L1018.25 821.138C1015.3 808.028 1008.48 788.334 994.78 771.479C981.008 754.533 960.292 740.491 929.875 738.97L929.547 745.529ZM836.831 751.441C838.006 750.815 840.569 749.889 844.91 748.925C849.182 747.975 854.99 747.028 862.525 746.272C877.592 744.76 899.456 744.024 929.547 745.529L929.875 738.97C899.534 737.453 877.333 738.186 861.869 739.737C854.139 740.513 848.066 741.496 843.485 742.514C838.974 743.517 835.714 744.595 833.741 745.647L836.831 751.441Z" fill="#333333"/>
<path d="M929.711 546.503C951.087 661.962 953.569 715.115 873.056 706.396C884.807 717.727 902.013 743.663 876.833 756.756C851.653 769.85 837.804 755.497 834.027 746.684C836.192 708.09 831.596 689.425 808.847 663.59C782.408 671.144 772.336 627.079 796.257 627.079C792.414 540.819 828.501 529.9 929.711 546.503Z" fill="#F6CBAB" stroke="#333333" stroke-width="6.56693" stroke-linecap="round" stroke-linejoin="round"/>
<path d="M904.531 598.122C912.085 609.873 926.438 634.13 923.416 637.151C920.394 640.173 912.924 644.286 909.567 645.964" stroke="#333333" stroke-width="6.56693" stroke-linecap="round" stroke-linejoin="round"/>
<path d="M909.567 577.043C915.023 570.748 923.416 567.906 930.97 571.683" stroke="#333333" stroke-width="6.56693" stroke-linecap="round" stroke-linejoin="round"/>
<path d="M884.387 587.363C873.895 578.97 849.387 578.734 840.322 596.863" stroke="#333333" stroke-width="6.56693" stroke-linecap="round" stroke-linejoin="round"/>
<ellipse rx="3.777" ry="7.554" transform="matrix(-1 0 0 1 880.61 608.194)" fill="#333333"/>
<ellipse rx="3.777" ry="7.554" transform="matrix(-1 0 0 1 925.934 600.64)" fill="#333333"/>
<path d="M919.639 664.849C912.085 668.626 896.222 676.18 893.2 676.18" stroke="#333333" stroke-width="6.56693" stroke-linecap="round" stroke-linejoin="round"/>
<path d="M875.574 557.835C828.991 569.166 796.476 587.106 815.142 647.224C806.176 645.534 801.23 644.129 794.998 627.08C783.822 626.337 725.763 524.251 794.998 515.029C864.233 505.807 926.486 492.049 963.704 476C975.035 551.54 922.157 546.504 875.574 557.835Z" fill="#333333" stroke="#333333" stroke-width="6.56693" stroke-linecap="round" stroke-linejoin="round"/>
<path d="M649.955 655.496C552.545 575.599 649.955 477.095 713.435 516.496C802.089 478.189 856.813 581.071 780.199 655.496C780.199 655.496 820.695 685.047 788.955 712.41C757.214 739.772 717.813 694.898 717.813 694.898C717.813 694.898 683.884 741.961 647.766 716.788C611.647 691.614 649.955 655.496 649.955 655.496Z" fill="#333333" stroke="#333333" stroke-width="6.56693" stroke-linecap="round" stroke-linejoin="round"/>
<path d="M709.057 713.504C632.443 713.504 630.254 607.339 630.254 607.339C679.949 590.739 697.795 575.778 714.529 540.575C727.978 578.785 745.718 592.786 785.671 611.717C785.671 611.717 785.671 713.504 709.057 713.504Z" fill="#F6CBAB" stroke="#333333" stroke-width="6.56693" stroke-linecap="round" stroke-linejoin="round"/>
<path fill-rule="evenodd" clip-rule="evenodd" d="M589.687 821.858H851.755C852.437 774.878 817.909 759.491 746.27 749.622H684.978C656.609 753.447 603.288 773.146 589.687 821.858Z" fill="#F08300"/>
<path d="M589.687 821.858L586.525 820.975C586.248 821.964 586.451 823.026 587.072 823.844C587.693 824.661 588.66 825.142 589.687 825.142V821.858ZM851.755 821.858V825.142C853.55 825.142 855.012 823.701 855.038 821.906L851.755 821.858ZM746.27 749.622L746.718 746.369C746.569 746.349 746.419 746.339 746.27 746.339V749.622ZM684.978 749.622V746.339C684.832 746.339 684.685 746.349 684.54 746.368L684.978 749.622ZM589.687 825.142H851.755V818.575H589.687V825.142ZM745.821 752.875C781.641 757.809 807.544 764.063 824.391 774.607C832.733 779.827 838.775 786.055 842.721 793.653C846.675 801.266 848.636 810.471 848.472 821.811L855.038 821.906C855.214 809.755 853.116 799.42 848.549 790.626C843.974 781.817 837.035 774.773 827.875 769.04C809.719 757.678 782.538 751.304 746.718 746.369L745.821 752.875ZM684.978 752.906H746.27V746.339H684.978V752.906ZM592.85 822.741C599.365 799.407 615.416 782.901 633.522 771.7C651.653 760.484 671.623 754.736 685.417 752.876L684.54 746.368C669.965 748.333 649.09 754.347 630.067 766.115C611.02 777.898 593.61 795.598 586.525 820.975L592.85 822.741Z" fill="#333333"/>
<path d="M692.64 760.567V708.032H736.419V760.567H692.64Z" fill="#F6CBAB" stroke="#333333" stroke-width="6.56693" stroke-linecap="round" stroke-linejoin="round"/>
<path d="M714.529 760.567C705.774 751.811 703.528 746.759 688.262 739.772C688.262 739.772 676.222 755.095 691.545 766.04C706.868 776.984 714.529 760.567 714.529 760.567Z" fill="#E37C00" stroke="#333333" stroke-width="6.56693" stroke-linecap="round" stroke-linejoin="round"/>
<path d="M716.718 760.567C725.474 748.528 730.947 745.244 741.892 738.677C741.892 738.677 755.025 755.095 739.703 766.04C724.38 776.984 716.718 760.567 716.718 760.567Z" fill="#E37C00" stroke="#333333" stroke-width="6.56693" stroke-linecap="round" stroke-linejoin="round"/>
<path d="M782.388 651.118C781.293 642.362 637.915 644.551 633.537 651.118C629.159 657.685 645.577 716.788 711.246 716.788C776.915 716.788 783.482 659.874 782.388 651.118Z" fill="white" stroke="#333333" stroke-width="6.56693" stroke-linecap="round" stroke-linejoin="round"/>
<path d="M734.23 620.473C737.149 617.919 744.737 614.344 751.742 620.473" stroke="#333333" stroke-width="6.56693" stroke-linecap="round" stroke-linejoin="round"/>
<path d="M687.167 620.473C684.249 617.919 676.66 614.344 669.655 620.473" stroke="#333333" stroke-width="6.56693" stroke-linecap="round" stroke-linejoin="round"/>
<path d="M730.947 606.244C736.054 601.866 749.334 595.299 761.592 604.055" stroke="#333333" stroke-width="6.56693" stroke-linecap="round" stroke-linejoin="round"/>
<path d="M690.451 606.244C685.343 601.866 672.063 595.299 659.805 604.055" stroke="#333333" stroke-width="6.56693" stroke-linecap="round" stroke-linejoin="round"/>
</g>
</svg>
