<svg width="123" height="26" viewBox="0 0 123 26" fill="none" xmlns="http://www.w3.org/2000/svg">
<g clip-path="url(#clip0)">
<g clip-path="url(#clip1)">
<path fill-rule="evenodd" clip-rule="evenodd" d="M10.5313 9.79628L14.4179 17.3475L16.1269 16.4678C16.4995 16.2753 16.7894 16.1136 16.9918 15.9841C17.1929 15.8545 17.3879 15.6917 17.5754 15.4942C17.7605 15.2944 17.8987 15.0784 17.99 14.8489C18.4157 13.8236 18.2281 12.5317 17.4261 10.9721C16.861 9.87401 16.2712 9.13617 15.6592 8.75984C15.046 8.38351 14.4587 8.24779 13.8973 8.34649C13.3346 8.4489 12.7078 8.67717 12.0218 9.03005L10.5313 9.79628ZM8.73967 8.45878L11.6763 6.9473C12.4401 6.5537 13.131 6.28719 13.7504 6.14776C14.3723 6.0071 15.004 6.01944 15.6493 6.17861C17.056 6.51298 18.2417 7.42727 19.2041 8.91901L21.1857 7.89861C21.6521 7.65924 22.2296 7.84432 22.4689 8.30948L22.5023 8.37488C22.7416 8.84127 22.5566 9.41872 22.0914 9.65809L20.1184 10.6736C20.2677 11.0326 20.3886 11.383 20.4824 11.726C20.6502 12.338 20.7243 12.9278 20.7119 13.4954C20.6959 14.063 20.5898 14.6194 20.3886 15.1648C20.2282 15.5843 20.0123 15.968 19.7409 16.3111C19.4706 16.6565 19.1486 16.9662 18.7747 17.2402C18.4021 17.5141 17.9579 17.7855 17.4483 18.0471L14.5117 19.5586C14.1021 19.7696 13.7628 19.8658 13.4888 19.8498C13.2174 19.8325 12.9941 19.7276 12.8151 19.5351C12.635 19.3426 12.4524 19.0663 12.2685 18.7097L8.06845 10.5502C7.81921 10.0665 7.74641 9.65809 7.85252 9.32865C7.95863 8.99797 8.25476 8.70802 8.73967 8.45878ZM2.9812 11.826L6.31882 10.1084C6.78522 9.86908 7.36267 10.0542 7.60205 10.5193L7.63536 10.5847C7.87473 11.0511 7.68965 11.6286 7.22448 11.8679L3.88686 13.5855C3.42046 13.8248 2.84301 13.6398 2.60364 13.1746L2.57032 13.1092C2.32972 12.644 2.5148 12.0666 2.9812 11.826ZM4.13487 14.0691L7.47249 12.3516C7.93889 12.1122 8.51634 12.2973 8.75571 12.7625L8.78903 12.8279C9.0284 13.2943 8.84332 13.8717 8.37815 14.1111L5.04053 15.8286C4.57413 16.068 3.99668 15.8829 3.75731 15.4177L3.72399 15.3523C3.48462 14.8872 3.6697 14.3097 4.13487 14.0691ZM5.23055 16.1963L8.56817 14.4788C9.03457 14.2394 9.61202 14.4245 9.85139 14.8897L9.88471 14.955C10.1241 15.4214 9.939 15.9989 9.47383 16.2383L6.13621 17.9558C5.6698 18.1952 5.09235 18.0101 4.85298 17.5449L4.81967 17.4795C4.57906 17.0144 4.76414 16.4369 5.23055 16.1963ZM6.32499 18.3235L9.66261 16.6059C10.129 16.3666 10.7065 16.5517 10.9458 17.0168L10.9791 17.0822C11.2185 17.5486 11.0334 18.1261 10.5683 18.3654L7.23065 20.083C6.76425 20.3223 6.1868 20.1373 5.94742 19.6721L5.91411 19.6067C5.67351 19.1415 5.85859 18.5641 6.32499 18.3235ZM7.41943 20.4507L10.7571 18.7331C11.2235 18.4938 11.8009 18.6788 12.0403 19.144L12.0736 19.2094C12.313 19.6758 12.1279 20.2532 11.6627 20.4926L8.32509 22.2101C7.85869 22.4495 7.28124 22.2644 7.04187 21.7993L7.00855 21.7339C6.76918 21.2687 6.95426 20.6913 7.41943 20.4507ZM7.43424 1.60346C13.7282 -1.63542 21.4572 0.839697 24.6961 7.13485C27.935 13.4288 25.4598 21.1577 19.1646 24.3965C12.8707 27.6354 5.14171 25.1603 1.9028 18.8651C-1.33611 12.5712 1.14027 4.84357 7.43424 1.60346Z" fill="#F08300"/>
<path d="M48.0241 3.82806V16.3116C48.0241 17.5297 48.0685 18.8137 48.113 19.5426H45.1256L44.9921 17.9706H44.9264C44.2631 19.1656 42.9348 19.7863 41.5406 19.7863C38.9728 19.7863 36.9154 17.5955 36.9154 14.231C36.8941 10.5784 39.1738 8.4533 41.763 8.4533C43.1126 8.4533 44.1317 8.94057 44.6189 9.67148H44.6634V3.82806H48.0241ZM44.6595 13.3009C44.6595 13.123 44.6595 12.8794 44.6151 12.6802C44.4159 11.7946 43.685 11.0424 42.6447 11.0424C41.0959 11.0424 40.3205 12.4153 40.3205 14.1188C40.3205 15.9558 41.2274 17.1063 42.6215 17.1063C43.5961 17.1063 44.3927 16.443 44.5919 15.4898C44.6363 15.2461 44.6576 14.9812 44.6576 14.7144V13.3009H44.6595Z" fill="black"/>
<path d="M53.8791 3.82806H57.2436V10.0041H57.2881C57.9301 9.07399 59.0593 8.4765 60.5637 8.4765C63.1528 8.4765 65.0342 10.6228 65.0129 13.9429C65.0129 17.8391 62.5553 19.7863 60.0764 19.7863C58.8157 19.7863 57.5743 19.3222 56.8221 18.0383H56.7776L56.6442 19.5426H53.7902C53.8346 18.8349 53.8791 17.5278 53.8791 16.3116V3.82806ZM57.2436 14.9387C57.2436 15.1591 57.2649 15.3583 57.3094 15.5362C57.5298 16.4218 58.3052 17.1295 59.2797 17.1295C60.7183 17.1295 61.6039 16.0234 61.6039 14.0743C61.6039 12.3921 60.8518 11.0637 59.2797 11.0637C58.3729 11.0637 57.5317 11.7501 57.3094 12.7247C57.2649 12.9238 57.2436 13.123 57.2436 13.3454V14.9387Z" fill="black"/>
<path d="M68.4548 15.2055C68.5437 16.5996 69.9378 17.2648 71.5099 17.2648C72.6604 17.2648 73.5905 17.1101 74.4973 16.8007L74.9401 19.0805C73.8341 19.5445 72.4825 19.7669 71.0226 19.7669C67.3487 19.7669 65.2449 17.6418 65.2449 14.2561C65.2449 11.5123 66.9485 8.47839 70.7113 8.47839C74.2092 8.47839 75.5376 11.2009 75.5376 13.879C75.5376 14.4552 75.4719 14.9638 75.4274 15.2074H68.4548V15.2055ZM72.4168 12.9025C72.4168 12.0827 72.0629 10.7117 70.5141 10.7117C69.0967 10.7117 68.5224 12.0169 68.4335 12.9025H72.4168Z" fill="black"/>
<path d="M76.2357 12.2838C76.2357 10.6905 76.2144 9.65019 76.1467 8.72011H79.024L79.1574 10.7118H79.2463C79.7993 9.11844 81.1065 8.45328 82.168 8.45328C82.4774 8.45328 82.6321 8.47455 82.8757 8.51902V11.6844C82.6108 11.6399 82.344 11.5954 81.9689 11.5954C80.7294 11.5954 79.8883 12.2587 79.6659 13.2989C79.6215 13.5194 79.6002 13.7862 79.6002 14.0511V19.5407H76.2357V12.2838Z" fill="black"/>
<path d="M83.3089 16.6209C83.9296 16.998 85.2116 17.4176 86.2093 17.4176C87.2284 17.4176 87.6479 17.085 87.6479 16.532C87.6479 15.9557 87.3154 15.6908 86.0759 15.2712C83.8174 14.5191 82.955 13.3009 82.9763 12.0169C82.9763 9.98084 84.703 8.45328 87.3811 8.45328C88.6438 8.45328 89.7498 8.76265 90.413 9.09524L89.8368 11.4195C89.3495 11.1546 88.3982 10.7988 87.4913 10.7988C86.6715 10.7988 86.2074 11.1313 86.2074 11.6612C86.2074 12.1929 86.627 12.4578 87.9554 12.9219C90.0147 13.6296 90.8558 14.6931 90.8771 16.2651C90.8771 18.3012 89.3051 19.7843 86.2074 19.7843C84.79 19.7843 83.5293 19.4517 82.7095 19.0089L83.3089 16.6209Z" fill="black"/>
<path d="M95.0963 5.70951C95.0963 6.63958 94.4098 7.39176 93.2806 7.39176C92.2171 7.39176 91.5326 6.63958 91.5326 5.70951C91.5326 4.75816 92.2403 4.02725 93.3251 4.02725C94.4098 4.02725 95.075 4.75816 95.0963 5.70951ZM91.6215 19.5427V8.71823H94.986V19.5427H91.6215Z" fill="black"/>
<path d="M96.3705 3.82806H99.735V10.0253H99.7795C100.133 9.53806 100.576 9.16294 101.108 8.8961C101.616 8.63119 102.237 8.47457 102.856 8.47457C105.002 8.47457 106.642 9.95766 106.642 13.2332V19.5407H103.277V13.5871C103.277 12.1697 102.79 11.1971 101.529 11.1971C100.644 11.1971 100.091 11.7733 99.8472 12.3921C99.7582 12.5913 99.737 12.8794 99.737 13.123V19.5426H96.3724V3.82806H96.3705Z" fill="black"/>
<path d="M112.495 12.1716C112.495 10.822 112.451 9.69273 112.406 8.71819H115.328L115.482 10.2225H115.548C115.991 9.51484 117.076 8.47455 118.891 8.47455C121.105 8.47455 122.765 9.95764 122.765 13.1443V19.5407H119.4V13.5426C119.4 12.1484 118.913 11.1971 117.696 11.1971C116.766 11.1971 116.213 11.8391 115.97 12.4578C115.881 12.6783 115.86 12.9896 115.86 13.2989V19.5407H112.495V12.1716Z" fill="black"/>
<path d="M111.234 8.79358H107.85V19.6006H111.234V8.79358Z" fill="black"/>
<path d="M111.234 8.79358H107.85V19.6006H111.234V8.79358Z" stroke="black" stroke-width="0.109617" stroke-miterlimit="22.9256"/>
<path d="M52.6338 8.76074H49.25V19.5678H52.6338V8.76074Z" fill="black"/>
<path d="M52.6338 8.76074H49.25V19.5678H52.6338V8.76074Z" stroke="black" stroke-width="0.109617" stroke-miterlimit="22.9256"/>
<path fill-rule="evenodd" clip-rule="evenodd" d="M109.598 4.04654C110.507 4.04654 111.242 4.78325 111.242 5.69012C111.242 6.59893 110.505 7.3337 109.598 7.3337C108.69 7.3337 107.955 6.59699 107.955 5.69012C107.955 4.78132 108.69 4.04654 109.598 4.04654Z" fill="#F08300"/>
<path fill-rule="evenodd" clip-rule="evenodd" d="M50.998 4.01172C51.9068 4.01172 52.6416 4.74843 52.6416 5.6553C52.6416 6.56411 51.9049 7.29888 50.998 7.29888C50.0892 7.29888 49.3544 6.56217 49.3544 5.6553C49.3544 4.74843 50.0911 4.01172 50.998 4.01172Z" fill="#F08300"/>
</g>
</g>
<defs>
<clipPath id="clip0">
<rect width="122.352" height="25.6399" fill="white" transform="translate(0.479614 0.180054)"/>
</clipPath>
<clipPath id="clip1">
<rect width="122.352" height="25.6399" fill="white" transform="translate(0.479614 0.180054)"/>
</clipPath>
</defs>
</svg>
