<svg width="27" height="26" viewBox="0 0 27 26" fill="none" xmlns="http://www.w3.org/2000/svg">
<path fill-rule="evenodd" clip-rule="evenodd" d="M10.5313 9.79628L14.4179 17.3475L16.1269 16.4678C16.4995 16.2753 16.7894 16.1136 16.9918 15.9841C17.1929 15.8545 17.3879 15.6917 17.5754 15.4942C17.7605 15.2944 17.8987 15.0784 17.99 14.8489C18.4157 13.8236 18.2281 12.5317 17.4261 10.9721C16.861 9.87401 16.2712 9.13617 15.6592 8.75984C15.046 8.38351 14.4587 8.24779 13.8973 8.34649C13.3346 8.4489 12.7078 8.67717 12.0218 9.03005L10.5313 9.79628ZM8.73967 8.45878L11.6763 6.9473C12.4401 6.5537 13.131 6.28719 13.7504 6.14776C14.3723 6.0071 15.004 6.01944 15.6493 6.17861C17.056 6.51298 18.2417 7.42727 19.2041 8.91901L21.1857 7.89861C21.6521 7.65924 22.2296 7.84432 22.4689 8.30948L22.5023 8.37488C22.7416 8.84127 22.5566 9.41872 22.0914 9.65809L20.1184 10.6736C20.2677 11.0326 20.3886 11.383 20.4824 11.726C20.6502 12.338 20.7243 12.9278 20.7119 13.4954C20.6959 14.063 20.5898 14.6194 20.3886 15.1648C20.2282 15.5843 20.0123 15.968 19.7409 16.3111C19.4706 16.6565 19.1486 16.9662 18.7747 17.2402C18.4021 17.5141 17.9579 17.7855 17.4483 18.0471L14.5117 19.5586C14.1021 19.7696 13.7628 19.8658 13.4888 19.8498C13.2174 19.8325 12.9941 19.7276 12.8151 19.5351C12.635 19.3426 12.4524 19.0663 12.2685 18.7097L8.06845 10.5502C7.81921 10.0665 7.74641 9.65809 7.85252 9.32865C7.95863 8.99797 8.25476 8.70802 8.73967 8.45878ZM2.9812 11.826L6.31882 10.1084C6.78522 9.86908 7.36267 10.0542 7.60205 10.5193L7.63536 10.5847C7.87473 11.0511 7.68965 11.6286 7.22448 11.8679L3.88686 13.5855C3.42046 13.8248 2.84301 13.6398 2.60364 13.1746L2.57032 13.1092C2.32972 12.644 2.5148 12.0666 2.9812 11.826ZM4.13487 14.0691L7.47249 12.3516C7.93889 12.1122 8.51634 12.2973 8.75571 12.7625L8.78903 12.8279C9.0284 13.2943 8.84332 13.8717 8.37815 14.1111L5.04053 15.8286C4.57413 16.068 3.99668 15.8829 3.75731 15.4177L3.72399 15.3523C3.48462 14.8872 3.6697 14.3097 4.13487 14.0691ZM5.23055 16.1963L8.56817 14.4788C9.03457 14.2394 9.61202 14.4245 9.85139 14.8897L9.88471 14.955C10.1241 15.4214 9.939 15.9989 9.47383 16.2383L6.13621 17.9558C5.6698 18.1952 5.09235 18.0101 4.85298 17.5449L4.81967 17.4795C4.57906 17.0144 4.76414 16.4369 5.23055 16.1963ZM6.32499 18.3235L9.66261 16.6059C10.129 16.3666 10.7065 16.5517 10.9458 17.0168L10.9791 17.0822C11.2185 17.5486 11.0334 18.1261 10.5683 18.3654L7.23065 20.083C6.76425 20.3223 6.1868 20.1373 5.94742 19.6721L5.91411 19.6067C5.67351 19.1415 5.85859 18.5641 6.32499 18.3235ZM7.41943 20.4507L10.7571 18.7331C11.2235 18.4938 11.8009 18.6788 12.0403 19.144L12.0736 19.2094C12.313 19.6758 12.1279 20.2532 11.6627 20.4926L8.32509 22.2101C7.85869 22.4495 7.28124 22.2644 7.04187 21.7993L7.00855 21.7339C6.76918 21.2687 6.95426 20.6913 7.41943 20.4507ZM7.43424 1.60346C13.7282 -1.63542 21.4572 0.839697 24.6961 7.13485C27.935 13.4288 25.4598 21.1577 19.1646 24.3965C12.8707 27.6354 5.14171 25.1603 1.9028 18.8651C-1.33611 12.5712 1.14027 4.84357 7.43424 1.60346Z" fill="#F08300"/>
</svg>
