<svg width="218" height="46" viewBox="0 0 218 46" fill="none" xmlns="http://www.w3.org/2000/svg">
<g clip-path="url(#clip0)">
<g clip-path="url(#clip1)">
<path fill-rule="evenodd" clip-rule="evenodd" d="M17.8766 17.5022L24.789 30.9318L27.8283 29.3672C28.491 29.0249 29.0067 28.7374 29.3666 28.507C29.7243 28.2766 30.071 27.987 30.4045 27.6359C30.7337 27.2804 30.9795 26.8964 31.1419 26.4882C31.8989 24.6647 31.5654 22.3671 30.139 19.5934C29.134 17.6404 28.085 16.3282 26.9966 15.6589C25.906 14.9896 24.8614 14.7482 23.863 14.9237C22.8623 15.1059 21.7476 15.5118 20.5275 16.1394L17.8766 17.5022ZM14.6903 15.1234L19.913 12.4353C21.2714 11.7353 22.5003 11.2613 23.6019 11.0133C24.7078 10.7632 25.8314 10.7851 26.9791 11.0682C29.4807 11.6629 31.5895 13.2889 33.3012 15.9419L36.8254 14.1272C37.6549 13.7015 38.6819 14.0306 39.1076 14.8579L39.1668 14.9742C39.5925 15.8037 39.2634 16.8307 38.4361 17.2564L34.9272 19.0624C35.1927 19.7009 35.4078 20.3242 35.5746 20.9342C35.873 22.0226 36.0047 23.0715 35.9827 24.081C35.9542 25.0904 35.7655 26.08 35.4078 27.05C35.1225 27.7961 34.7385 28.4785 34.2557 29.0886C33.7751 29.703 33.2024 30.2538 32.5375 30.7409C31.8748 31.2281 31.0848 31.7109 30.1785 32.1761L24.9558 34.8642C24.2273 35.2394 23.6238 35.4106 23.1366 35.3821C22.6539 35.3514 22.2567 35.1648 21.9385 34.8225C21.6181 34.4802 21.2933 33.9886 20.9664 33.3545L13.4966 18.8429C13.0533 17.9827 12.9238 17.2564 13.1126 16.6705C13.3013 16.0824 13.8279 15.5667 14.6903 15.1234ZM4.44902 21.1119L10.3849 18.0573C11.2144 17.6316 12.2414 17.9608 12.6671 18.7881L12.7263 18.9044C13.1521 19.7339 12.8229 20.7608 11.9956 21.1865L6.05972 24.2411C5.23023 24.6669 4.20325 24.3377 3.77753 23.5104L3.71828 23.3941C3.29037 22.5668 3.61953 21.5398 4.44902 21.1119ZM6.50079 25.1013L12.4367 22.0468C13.2662 21.621 14.2932 21.9502 14.7189 22.7775L14.7781 22.8938C15.2038 23.7233 14.8747 24.7502 14.0474 25.176L8.11149 28.2306C7.28201 28.6563 6.25502 28.3271 5.82931 27.4998L5.77006 27.3835C5.34434 26.5562 5.6735 25.5293 6.50079 25.1013ZM8.44943 28.8845L14.3853 25.8299C15.2148 25.4042 16.2418 25.7333 16.6675 26.5606L16.7268 26.6769C17.1525 27.5064 16.8233 28.5334 15.996 28.9591L10.0601 32.0137C9.23064 32.4394 8.20366 32.1102 7.77794 31.283L7.71869 31.1666C7.29078 30.3394 7.61995 29.3124 8.44943 28.8845ZM10.3959 32.6676L16.3318 29.613C17.1613 29.1873 18.1882 29.5165 18.614 30.3438L18.6732 30.4601C19.0989 31.2895 18.7698 32.3165 17.9425 32.7422L12.0066 35.7968C11.1771 36.2225 10.1501 35.8934 9.72439 35.0661L9.66514 34.9498C9.23723 34.1225 9.56639 33.0955 10.3959 32.6676ZM12.3423 36.4507L18.2782 33.3961C19.1077 32.9704 20.1347 33.2996 20.5604 34.1269L20.6196 34.2432C21.0454 35.0727 20.7162 36.0996 19.8889 36.5254L13.953 39.5799C13.1235 40.0057 12.0965 39.6765 11.6708 38.8492L11.6116 38.7329C11.1859 37.9056 11.515 36.8787 12.3423 36.4507ZM12.3687 2.93139C23.5624 -2.82889 37.3082 1.57306 43.0685 12.7689C48.8288 23.9625 44.4268 37.7081 33.2309 43.4684C22.0372 49.2287 8.29144 44.8267 2.5311 33.6309C-3.22923 22.4373 1.17496 8.69387 12.3687 2.93139Z" fill="white"/>
<path d="M84.5568 6.8877V29.0893C84.5568 31.2558 84.6359 33.5393 84.715 34.8357H79.4019L79.1646 32.0399H79.0477C77.8681 34.1652 75.5056 35.2691 73.0261 35.2691C68.4593 35.2691 64.8003 31.3728 64.8003 25.389C64.7624 18.8929 68.8169 15.1136 73.4216 15.1136C75.822 15.1136 77.6343 15.9802 78.5009 17.2801H78.58V6.8877H84.5568ZM78.5731 23.7349C78.5731 23.4186 78.5731 22.9853 78.494 22.631C78.1398 21.056 76.8399 19.7183 74.9898 19.7183C72.2352 19.7183 70.8562 22.1599 70.8562 25.1896C70.8562 28.4566 72.469 30.5027 74.9485 30.5027C76.6817 30.5027 78.0985 29.3232 78.4527 27.6278C78.5318 27.1945 78.5697 26.7233 78.5697 26.2488V23.7349H78.5731Z" fill="white"/>
<path d="M94.9699 6.8877H100.954V17.8716H101.033C102.174 16.2175 104.183 15.1548 106.858 15.1548C111.463 15.1548 114.809 18.972 114.771 24.8767C114.771 31.8061 110.4 35.2691 105.992 35.2691C103.749 35.2691 101.542 34.4437 100.204 32.1603H100.125L99.8875 34.8357H94.8117C94.8908 33.5771 94.9699 31.2524 94.9699 29.0893V6.8877ZM100.954 26.6477C100.954 27.0397 100.991 27.3939 101.07 27.7103C101.463 29.2853 102.842 30.544 104.575 30.544C107.133 30.544 108.708 28.5769 108.708 25.1105C108.708 22.1186 107.371 19.7561 104.575 19.7561C102.962 19.7561 101.466 20.9769 101.07 22.7101C100.991 23.0644 100.954 23.4186 100.954 23.814V26.6477Z" fill="white"/>
<path d="M120.892 27.1222C121.051 29.6016 123.53 30.7846 126.326 30.7846C128.372 30.7846 130.026 30.5095 131.639 29.9593L132.426 34.0138C130.459 34.8391 128.056 35.2346 125.459 35.2346C118.925 35.2346 115.184 31.4552 115.184 25.4337C115.184 20.5539 118.213 15.1582 124.906 15.1582C131.127 15.1582 133.489 20.0002 133.489 24.7631C133.489 25.7879 133.372 26.6923 133.293 27.1256H120.892V27.1222ZM127.939 23.0264C127.939 21.5683 127.309 19.1302 124.555 19.1302C122.034 19.1302 121.013 21.4514 120.855 23.0264H127.939Z" fill="white"/>
<path d="M134.731 21.926C134.731 19.0923 134.693 17.2422 134.572 15.5881H139.69L139.927 19.1302H140.085C141.069 16.2965 143.393 15.1135 145.281 15.1135C145.831 15.1135 146.107 15.1514 146.54 15.2304V20.8599C146.069 20.7809 145.594 20.7018 144.927 20.7018C142.723 20.7018 141.227 21.8813 140.831 23.7314C140.752 24.1235 140.714 24.598 140.714 25.0692V34.8323H134.731V21.926Z" fill="white"/>
<path d="M147.31 29.6395C148.414 30.3101 150.694 31.0563 152.469 31.0563C154.281 31.0563 155.027 30.4648 155.027 29.4813C155.027 28.4565 154.436 27.9854 152.231 27.2391C148.215 25.9014 146.681 23.7349 146.719 21.4514C146.719 17.8303 149.79 15.1135 154.552 15.1135C156.798 15.1135 158.765 15.6637 159.945 16.2552L158.92 20.3888C158.053 19.9177 156.361 19.2849 154.749 19.2849C153.29 19.2849 152.465 19.8764 152.465 20.8187C152.465 21.7644 153.211 22.2355 155.574 23.0609C159.236 24.3195 160.732 26.2109 160.77 29.0067C160.77 32.6279 157.974 35.2656 152.465 35.2656C149.944 35.2656 147.702 34.6741 146.244 33.8866L147.31 29.6395Z" fill="white"/>
<path d="M168.274 10.234C168.274 11.8882 167.053 13.2259 165.045 13.2259C163.153 13.2259 161.936 11.8882 161.936 10.234C161.936 8.5421 163.194 7.24219 165.124 7.24219C167.053 7.24219 168.236 8.5421 168.274 10.234ZM162.094 34.836V15.585H168.078V34.836H162.094Z" fill="white"/>
<path d="M170.54 6.8877H176.524V17.9094H176.603C177.232 17.0428 178.02 16.3757 178.965 15.9011C179.87 15.43 180.974 15.1514 182.074 15.1514C185.891 15.1514 188.807 17.7891 188.807 23.6146V34.8323H182.824V24.2439C182.824 21.7232 181.957 19.9934 179.715 19.9934C178.14 19.9934 177.156 21.0182 176.723 22.1186C176.565 22.4729 176.527 22.9853 176.527 23.4186V34.8357H170.543V6.8877H170.54Z" fill="white"/>
<path d="M199.217 21.7266C199.217 19.3262 199.138 17.3179 199.059 15.5847H204.255L204.53 18.2601H204.647C205.435 17.0015 207.364 15.1514 210.593 15.1514C214.531 15.1514 217.481 17.789 217.481 23.4563V34.8323H211.497V24.1648C211.497 21.6853 210.631 19.9934 208.468 19.9934C206.814 19.9934 205.83 21.1351 205.397 22.2355C205.239 22.6276 205.201 23.1812 205.201 23.7315V34.8323H199.217V21.7266Z" fill="white"/>
<path d="M196.975 15.7188H190.957V34.9388H196.975V15.7188Z" fill="white"/>
<path d="M196.975 15.7188H190.957V34.9388H196.975V15.7188Z" stroke="white" stroke-width="0.194952" stroke-miterlimit="22.9256"/>
<path d="M92.7552 15.6604H86.7371V34.8805H92.7552V15.6604Z" fill="white"/>
<path d="M92.7552 15.6604H86.7371V34.8805H92.7552V15.6604Z" stroke="white" stroke-width="0.194952" stroke-miterlimit="22.9256"/>
<path fill-rule="evenodd" clip-rule="evenodd" d="M194.066 7.27637C195.682 7.27637 196.989 8.58659 196.989 10.1994C196.989 11.8157 195.678 13.1225 194.066 13.1225C192.449 13.1225 191.143 11.8123 191.143 10.1994C191.143 8.58315 192.449 7.27637 194.066 7.27637Z" fill="white"/>
<path fill-rule="evenodd" clip-rule="evenodd" d="M89.8459 7.21436C91.4622 7.21436 92.7689 8.52458 92.7689 10.1374C92.7689 11.7537 91.4587 13.0605 89.8459 13.0605C88.2296 13.0605 86.9228 11.7503 86.9228 10.1374C86.9228 8.52458 88.233 7.21436 89.8459 7.21436Z" fill="white"/>
</g>
</g>
<defs>
<clipPath id="clip0">
<rect width="217.6" height="45.6" fill="white" transform="translate(0 0.399902)"/>
</clipPath>
<clipPath id="clip1">
<rect width="217.6" height="45.6" fill="white" transform="translate(0 0.399902)"/>
</clipPath>
</defs>
</svg>
