<svg width="478" height="265" viewBox="0 0 478 265" fill="none" xmlns="http://www.w3.org/2000/svg">
<g clip-path="url(#clip0)">
<rect x="3.61363" y="44.6818" width="470.409" height="217.341" rx="44.6591" fill="#E37C00"/>
<g opacity="0.5">
<path d="M116.143 212.448V225.162L118.375 226.399V233.411C106.377 235.402 99.3642 260.141 99.3642 260.141H58.2368C57.3366 260.141 56.4453 259.964 55.6136 259.62C54.782 259.275 54.0264 258.77 53.3899 258.134C52.7534 257.497 52.2485 256.742 51.904 255.91C51.5595 255.078 51.3822 254.187 51.3822 253.287V131.923C51.3822 130.105 52.1044 128.361 53.3899 127.076C54.6753 125.79 56.4188 125.068 58.2368 125.068H138.808C139.889 125.066 140.955 125.324 141.915 125.821C143.037 126.396 143.979 127.27 144.636 128.347C145.292 129.424 145.638 130.662 145.635 131.923V212.448H116.143Z" fill="#E6E6E6"/>
<path d="M426.386 92.3181H293.898V260.534H426.386V92.3181Z" fill="#EBEBEB"/>
<path d="M395.943 123.65H364.014V155.579H395.943V123.65Z" fill="#F5F5F5"/>
<path d="M356.527 123.65H324.598V155.579H356.527V123.65Z" fill="#F5F5F5"/>
<path d="M356.527 163.075H324.598V195.004H356.527V163.075Z" fill="#F5F5F5"/>
<path d="M395.943 163.075H364.014V195.004H395.943V163.075Z" fill="#F5F5F5"/>
<path d="M115.696 92.1546C115.696 90.7675 115.146 89.437 114.166 88.4553C113.186 87.4736 111.856 86.9208 110.469 86.9184C109.962 86.9208 109.458 86.9959 108.972 87.1416C109.047 86.6086 109.084 86.0709 109.083 85.5326C109.083 82.5923 107.915 79.7724 105.836 77.6933C103.757 75.6142 100.937 74.4462 97.9971 74.4462C97.3134 74.4448 96.6312 74.5103 95.9602 74.6415C94.8676 72.8462 93.2209 71.4546 91.2685 70.6768C89.316 69.8989 87.1636 69.7768 85.1357 70.3289C83.1078 70.881 81.3144 72.0774 80.0257 73.7377C78.7371 75.398 78.0231 77.4322 77.9914 79.5337H77.824C75.5046 79.6085 73.3053 80.5825 71.6911 82.2496C70.0769 83.9168 69.1743 86.1464 69.1743 88.4669C69.1743 90.7875 70.0769 93.0171 71.6911 94.6842C73.3053 96.3514 75.5046 97.3254 77.824 97.4002H110.618C111.982 97.3637 113.278 96.7941 114.227 95.8135C115.177 94.8329 115.704 93.5194 115.696 92.1546Z" fill="#F5F5F5"/>
<path d="M230.373 89.7301C230.368 88.8824 230.028 88.071 229.427 87.4732C228.826 86.8755 228.012 86.54 227.164 86.54C226.85 86.5386 226.537 86.5825 226.234 86.6702C226.283 86.347 226.308 86.0206 226.309 85.6937C226.313 84.6941 226.096 83.7061 225.673 82.8005C225.25 81.8949 224.632 81.0942 223.863 80.4558C223.093 79.8174 222.193 79.3572 221.225 79.1082C220.257 78.8593 219.245 78.8277 218.264 79.0158C217.596 77.9113 216.587 77.0545 215.389 76.5753C214.19 76.0961 212.869 76.0205 211.624 76.3602C210.379 76.6998 209.278 77.4361 208.489 78.4575C207.7 79.4788 207.266 80.7294 207.252 82.0199H207.196C206.458 81.9895 205.722 82.1085 205.031 82.3699C204.341 82.6312 203.71 83.0295 203.177 83.5408C202.645 84.052 202.221 84.6657 201.931 85.3449C201.642 86.0242 201.492 86.7549 201.492 87.4933C201.492 88.2317 201.642 88.9625 201.931 89.6417C202.221 90.321 202.645 90.9347 203.177 91.4459C203.71 91.9572 204.341 92.3554 205.031 92.6168C205.722 92.8781 206.458 92.9972 207.196 92.9668H227.285C228.12 92.9353 228.91 92.5796 229.486 91.9752C230.063 91.3708 230.381 90.5654 230.373 89.7301Z" fill="#F5F5F5"/>
</g>
<path d="M261.165 291.795C220.078 312.041 218.242 264.504 222.46 238.205L258.187 242.67C276.299 250.61 302.251 271.55 261.165 291.795Z" fill="#F08300" stroke="#333333" stroke-width="4.46591" stroke-linecap="round" stroke-linejoin="round"/>
<path d="M392.892 212.898C417.822 233.968 424.402 288.818 416.71 300.728C391.106 321.568 299.31 323.801 270.778 320.824C255.845 320.241 266.312 248.625 266.312 248.625C266.312 248.625 221.054 274.177 229.886 248.625C250.727 188.335 351.501 177.915 392.892 212.898Z" fill="#F08300" stroke="#333333" stroke-width="4.46591" stroke-linecap="round" stroke-linejoin="round"/>
<path d="M386.147 264.256C386.147 275.172 388.231 299.536 396.568 309.659" stroke="#333333" stroke-width="4.46591" stroke-linecap="round" stroke-linejoin="round"/>
<path d="M310.739 49.892C266.676 24.2875 249.705 59.0719 246.728 79.6647C239.133 160.266 248.029 193.068 303.335 181.759L305.529 207.687L318.182 215.131C326.37 212.401 342.79 212.79 348.233 207.687C360.142 196.523 351.955 202.477 360.886 190.568L395.125 106.46L310.739 49.892Z" fill="#F6CBAB"/>
<path d="M303.335 181.759L305.529 207.687L318.182 215.131C326.37 212.401 342.79 212.79 348.233 207.687C360.142 196.523 351.955 202.477 360.886 190.568L395.125 106.46L310.739 49.892C266.676 24.2875 249.705 59.0719 246.728 79.6647C238.955 162.153 248.455 194.578 307.295 180.892" stroke="#333333" stroke-width="4.46591" stroke-linecap="round" stroke-linejoin="round"/>
<path d="M283.2 156.313C293.178 155.377 304.772 153.682 307.762 151.119C295.853 192.206 286.425 171.701 283.2 156.313Z" fill="#333333"/>
<path d="M272.779 157.074C275.585 156.934 279.267 156.682 283.2 156.313M283.2 156.313C293.178 155.377 304.772 153.682 307.762 151.119C295.853 192.206 286.425 171.701 283.2 156.313Z" stroke="#333333" stroke-width="4.46591" stroke-linecap="round" stroke-linejoin="round"/>
<path d="M288.275 162.228C285.965 161.636 284.425 158.033 283.944 156.306C290.295 156.306 301.725 154.089 307.018 152.608L305.529 157.074C300.477 159.295 290.584 162.821 288.275 162.228Z" fill="white" stroke="#333333" stroke-width="4.46591" stroke-linecap="round" stroke-linejoin="round"/>
<path d="M270.546 111.67C268.313 120.354 264.145 138.019 265.336 139.21C266.527 140.401 274.764 140.699 278.734 140.699" stroke="#333333" stroke-width="4.46591" stroke-linecap="round" stroke-linejoin="round"/>
<path d="M266.825 92.3181C263.599 88.5965 255.064 83.0886 246.728 90.8295" stroke="#333333" stroke-width="4.46591" stroke-linecap="round" stroke-linejoin="round"/>
<path d="M291.387 90.0851C297.59 85.123 311.335 77.8783 316.694 88.5965" stroke="#333333" stroke-width="4.46591" stroke-linecap="round" stroke-linejoin="round"/>
<ellipse cx="299.575" cy="108.693" rx="2.23295" ry="4.46591" fill="#333333"/>
<ellipse cx="253.427" cy="108.693" rx="2.23295" ry="4.46591" fill="#333333"/>
<path d="M312.668 208.432C307.029 199.066 305.009 193.498 302.991 183.125C272.191 215.065 276.537 221.002 312.668 215.875C338.823 245.898 346.436 220.602 361.793 186.102C346.891 188.954 338.315 190.857 312.668 208.432Z" fill="#E37C00" stroke="#333333" stroke-width="4.46591" stroke-linecap="round" stroke-linejoin="round"/>
<path d="M345.722 250.858L312.228 245.648V252.347L344.234 259.045L345.722 250.858Z" fill="white" stroke="#333333" stroke-width="4.46591" stroke-linecap="round" stroke-linejoin="round"/>
<path d="M200.708 176.801C205.356 172.285 233.816 180.761 232.313 214.616C263.362 214.11 286.608 211.195 263.918 234.907C270.397 239.95 270.18 242.777 263.918 247.82C270.531 252.068 269.269 255.317 263.918 261.655C264.795 273.221 262.274 277.395 244.397 274.567C215.8 269.076 210.933 246.993 214.651 221.073C218.37 195.152 196.06 181.318 200.708 176.801Z" fill="#F6CBAB" stroke="#333333" stroke-width="4.46591" stroke-linecap="round" stroke-linejoin="round"/>
<path d="M126.38 122.091C107.039 136.191 69.9814 229.721 41.5279 302.96L150.198 314.125C150.198 314.125 229.096 154.097 228.352 148.142C227.607 142.187 223.886 122.091 215.698 117.625C207.511 113.159 145.722 107.991 126.38 122.091Z" fill="#333333" stroke="#333333" stroke-width="4.46591" stroke-linecap="round" stroke-linejoin="round"/>
<path d="M134.568 298.494C141.713 286.585 211.977 135.489 211.232 131.767C210.488 128.045 133.125 128.046 124.147 135.489C115.169 142.932 54.9256 291.051 54.9256 291.051L134.568 298.494Z" fill="white" stroke="#333333" stroke-width="4.46591" stroke-linecap="round" stroke-linejoin="round"/>
<path d="M173.272 190.568C172.528 186.102 133.926 187.312 107.028 190.568C107.028 190.568 93.6302 217.364 95.1188 220.341C96.6074 223.318 151.687 227.784 155.409 227.04C159.13 226.295 174.017 195.034 173.272 190.568Z" fill="#F08300" stroke="#333333" stroke-width="4.46591" stroke-linecap="round" stroke-linejoin="round"/>
<path d="M115.994 199.787C117.342 199.787 118.511 200.274 119.504 201.248C120.496 202.222 120.993 203.433 120.993 204.881C120.993 206.319 120.519 207.549 119.572 208.568C118.625 209.579 117.46 210.084 116.076 210.084C114.692 210.084 113.513 209.584 112.539 208.582C111.574 207.581 111.091 206.388 111.091 205.004C111.091 204.248 111.228 203.542 111.501 202.887C111.774 202.222 112.138 201.667 112.593 201.221C113.049 200.775 113.572 200.424 114.164 200.169C114.756 199.914 115.366 199.787 115.994 199.787ZM113.508 204.936C113.508 205.746 113.768 206.406 114.287 206.916C114.815 207.417 115.402 207.667 116.049 207.667C116.695 207.667 117.278 207.421 117.797 206.93C118.316 206.438 118.575 205.778 118.575 204.949C118.575 204.121 118.311 203.456 117.783 202.955C117.264 202.454 116.681 202.204 116.035 202.204C115.388 202.204 114.806 202.459 114.287 202.969C113.768 203.47 113.508 204.125 113.508 204.936Z" fill="#333333"/>
<path d="M126.775 202.805C126.948 202.86 127.089 202.955 127.198 203.092C127.317 203.219 127.376 203.429 127.376 203.72C127.376 204.011 127.289 204.33 127.116 204.676C126.943 205.022 126.693 205.195 126.365 205.195C126.201 205.195 126.042 205.159 125.887 205.086C125.742 205.013 125.546 204.976 125.3 204.976C125.054 204.976 124.822 205.063 124.604 205.236C124.394 205.409 124.289 205.618 124.289 205.864V208.732C124.289 208.942 124.28 209.101 124.262 209.21C124.253 209.31 124.212 209.429 124.139 209.565C124.003 209.802 123.647 209.921 123.074 209.921C122.637 209.921 122.323 209.843 122.132 209.688C121.986 209.561 121.904 209.365 121.886 209.101C121.886 209.01 121.886 208.878 121.886 208.705V203.911C121.886 203.702 121.89 203.547 121.899 203.447C121.918 203.338 121.959 203.219 122.022 203.092C122.15 202.846 122.505 202.723 123.088 202.723C123.634 202.723 123.975 202.828 124.112 203.037C124.212 203.183 124.262 203.333 124.262 203.488C124.308 203.424 124.371 203.347 124.453 203.256C124.544 203.165 124.731 203.042 125.013 202.887C125.295 202.732 125.541 202.655 125.751 202.655C125.969 202.655 126.151 202.668 126.297 202.696C126.443 202.714 126.602 202.75 126.775 202.805Z" fill="#333333"/>
<path d="M132.535 199.732C132.608 199.595 132.731 199.5 132.904 199.445C133.077 199.391 133.305 199.363 133.587 199.363C133.878 199.363 134.11 199.391 134.283 199.445C134.456 199.5 134.575 199.595 134.638 199.732C134.711 199.869 134.752 199.992 134.761 200.101C134.78 200.201 134.789 200.356 134.789 200.565V208.719C134.789 208.928 134.78 209.087 134.761 209.197C134.752 209.297 134.711 209.411 134.638 209.538C134.502 209.784 134.115 209.907 133.478 209.907C132.849 209.907 132.499 209.684 132.426 209.238C132.044 209.675 131.511 209.893 130.828 209.893C130.009 209.893 129.262 209.538 128.588 208.828C127.914 208.109 127.578 207.276 127.578 206.329C127.578 205.373 127.914 204.535 128.588 203.816C129.271 203.096 130.018 202.737 130.828 202.737C131.502 202.737 132.025 202.964 132.399 203.42V200.551C132.399 200.342 132.403 200.187 132.412 200.087C132.43 199.978 132.471 199.86 132.535 199.732ZM130.323 207.148C130.559 207.394 130.846 207.517 131.183 207.517C131.52 207.517 131.798 207.394 132.016 207.148C132.244 206.902 132.358 206.634 132.358 206.342C132.358 206.042 132.248 205.764 132.03 205.509C131.82 205.254 131.534 205.127 131.169 205.127C130.805 205.127 130.514 205.254 130.295 205.509C130.077 205.755 129.968 206.028 129.968 206.329C129.968 206.629 130.086 206.902 130.323 207.148Z" fill="#333333"/>
<path d="M142.815 205.468C142.815 206.024 142.673 206.438 142.391 206.711C142.118 206.975 141.813 207.107 141.476 207.107H138.239C138.239 207.362 138.39 207.576 138.69 207.749C138.99 207.922 139.291 208.008 139.591 208.008C140.119 208.008 140.534 207.954 140.834 207.845L140.984 207.79C141.203 207.69 141.385 207.64 141.531 207.64C141.822 207.64 142.073 207.845 142.282 208.254C142.4 208.5 142.459 208.71 142.459 208.883C142.459 209.693 141.49 210.098 139.55 210.098C138.877 210.098 138.276 209.984 137.748 209.757C137.229 209.52 136.823 209.21 136.532 208.828C135.959 208.09 135.672 207.266 135.672 206.356C135.672 205.209 136.04 204.294 136.778 203.611C137.525 202.919 138.453 202.573 139.564 202.573C140.83 202.573 141.758 203.019 142.35 203.911C142.66 204.385 142.815 204.904 142.815 205.468ZM139.933 205.864C140.279 205.864 140.452 205.719 140.452 205.427C140.452 205.218 140.37 205.049 140.206 204.922C140.051 204.794 139.824 204.731 139.523 204.731C139.232 204.731 138.94 204.854 138.649 205.099C138.358 205.336 138.212 205.591 138.212 205.864H139.933Z" fill="#333333"/>
<path d="M148.595 202.805C148.768 202.86 148.909 202.955 149.018 203.092C149.137 203.219 149.196 203.429 149.196 203.72C149.196 204.011 149.109 204.33 148.936 204.676C148.763 205.022 148.513 205.195 148.185 205.195C148.021 205.195 147.862 205.159 147.707 205.086C147.562 205.013 147.366 204.976 147.12 204.976C146.874 204.976 146.642 205.063 146.423 205.236C146.214 205.409 146.109 205.618 146.109 205.864V208.732C146.109 208.942 146.1 209.101 146.082 209.21C146.073 209.31 146.032 209.429 145.959 209.565C145.823 209.802 145.467 209.921 144.894 209.921C144.457 209.921 144.143 209.843 143.951 209.688C143.806 209.561 143.724 209.365 143.706 209.101C143.706 209.01 143.706 208.878 143.706 208.705V203.911C143.706 203.702 143.71 203.547 143.719 203.447C143.737 203.338 143.778 203.219 143.842 203.092C143.97 202.846 144.325 202.723 144.907 202.723C145.454 202.723 145.795 202.828 145.932 203.037C146.032 203.183 146.082 203.333 146.082 203.488C146.128 203.424 146.191 203.347 146.273 203.256C146.364 203.165 146.551 203.042 146.833 202.887C147.115 202.732 147.361 202.655 147.571 202.655C147.789 202.655 147.971 202.668 148.117 202.696C148.263 202.714 148.422 202.75 148.595 202.805Z" fill="#333333"/>
<path d="M43.0166 221.83C31.1075 237.46 51.9484 278.398 51.9484 278.398L61.6245 248.625C78.4874 249.004 80.0709 251.936 100.329 242.67C120.587 233.405 123.403 216.619 116.704 211.409C110.005 206.199 54.9257 206.199 43.0166 221.83Z" fill="#F6CBAB" stroke="#333333" stroke-width="4.46591" stroke-linecap="round" stroke-linejoin="round"/>
<path d="M178.482 247.136C186.67 254.579 181.46 305.193 181.46 305.193C149.636 320.69 137.969 309.085 115.215 294.773C116.208 284.6 119.384 262.767 124.147 256.812C128.911 250.858 170.295 239.693 178.482 247.136Z" fill="#F6CBAB" stroke="#333333" stroke-width="4.46591" stroke-linecap="round" stroke-linejoin="round"/>
</g>
<rect x="3.61363" y="44.6818" width="470.409" height="217.341" rx="44.6591" stroke="white" stroke-width="5.95455"/>
<path d="M372.7 198.011C342.927 197.416 366.993 161.865 372.7 143.257C389.768 112.478 385.215 106.763 368.234 103.809C366.774 116.131 362.709 119.929 354.092 125.394C359.229 113.547 359.65 106.315 354.092 91.8995C322.932 83.6867 307.718 73.0277 283.381 46.4961C273.413 66.5604 266.011 74.9193 246.166 79.2461C232.851 50.1086 249.887 16.7234 283.381 21.1893C353.347 -27.9358 435.967 33.0983 424.802 78.5018C419.592 114.973 418.103 131.348 433.734 158.888C449.364 186.428 409.916 198.756 372.7 198.011Z" fill="#333333" stroke="#333333" stroke-width="4.46591" stroke-linecap="round" stroke-linejoin="round"/>
<defs>
<clipPath id="clip0">
</clipPath>
</defs>
</svg>
